<?xml version="1.0" encoding="utf-8"?>
<!DOCTYPE svg PUBLIC "-//W3C//DTD SVG 1.1//EN" "http://www.w3.org/Graphics/SVG/1.1/DTD/svg11.dtd">
<svg version="1.1" xmlns="http://www.w3.org/2000/svg" xmlns:xlink="http://www.w3.org/1999/xlink" viewBox="0 0 800 800">
<defs>

<symbol id="ghost" viewBox="277 264 256 225">
<path fill="#B4DBD8" d="M488.36,362.9c-4.58-9.58-22.9-8.33-24.56,4.99c-1.66,13.32-8.29,17.6-8.29,17.6l-0.18,0.86l2.51-23.66c0.65-3.04,1-6.18,1-9.39c0-26.89-23.79-48.7-53.15-48.7c-0.01,0-0.02,0-0.03,0v183.88h21.36c0,0,11.76,2.4,20.45-5.53c1.68-1.41,3.01-3.14,4.09-5.02c0.1-0.17,0.21-0.33,0.31-0.5c8.35-14.41,0.34-0.64,0.34-0.64c0.36-0.73,0.73-1.47,1.1-2.22c0.34-0.75,0.65-1.52,1-2.25c0.34-0.76,0.71-1.52,1.08-2.26c0.41-0.75,0.63-1.36,1.01-2.01l0.26-0.49c0.03-0.04-0.05,0.05,0.08-0.1l0.01-0.02l0.03-0.05l0.05-0.09l0.1-0.18l0.41-0.75c0.26-0.54,0.59-0.9,0.9-1.38c0.62-0.8,1.34-1.57,1.98-1.95c0.66-0.42,1.19-0.6,1.66-0.64c0.47-0.05,1.02,0.08,1.52,0.5l0.2,0.16c0.03,0.02,0.05,0.04,0.09,0.05c0.04-0.12,0.29,0.4,0.46,0.7l0.07,0.12c-0.04-0.11-0.06-0.16-0.08-0.19l0.01,0.02c0.02,0.03,0.05,0.04,0.09,0.09l0.13,0.63c0.15,1.07,0.07,2.62,0.06,4.16c-0.02,1.55-0.03,3.22,0.21,4.95c0.08,0.85,0.32,1.75,0.53,2.61c0.33,0.88,0.6,1.74,1.12,2.55c0.42,0.84,1.07,1.53,1.67,2.22c0.68,0.6,1.33,1.18,2.11,1.62c0.76,0.39,1.66,0.93,2.24,1.05l0.96,0.3l0.47,0.15c0.28,0.1,0.1,0.03,0.17,0.06l0.04,0.01l0.07,0.02l0.14,0.03l0.29,0.06c1.51,0.32,3.14,0.33,4.61-0.12c1.48-0.44,2.71-1.31,3.58-2.28c1.75-1.97,2.51-4.08,3.08-5.91c0.54-1.84,0.8-3.47,0.97-4.81c0.32-2.68,0.28-4.21,0.28-4.21s-0.2,1.53-0.92,4.08c-0.37,1.27-0.87,2.81-1.64,4.44c-0.77,1.61-1.83,3.42-3.42,4.62c-1.58,1.23-3.53,1.44-5.54,0.6c-2.25-0.97-3.94-2.26-4.53-4.2c-0.35-0.92-0.44-2.02-0.37-3.24c0.04-1.2,0.27-2.52,0.55-3.95c0.25-1.45,0.63-2.9,0.77-4.87c0.02-0.51,0-1.09-0.01-1.64c-0.04-0.32-0.11-0.68-0.17-1.02l-0.11-0.51l-0.03-0.13l-0.02-0.07c-0.05-0.12,0.08,0.19-0.11-0.29l-0.05-0.14c-0.15-0.4-0.15-0.6-0.55-1.35c-0.16-0.31-0.33-0.63-0.51-0.92l-0.52-0.74c-1.4-1.95-3.61-3.51-6.13-4.12c-2.52-0.65-5.09-0.31-7.19,0.4c-2.17,0.7-3.86,1.78-5.49,2.85c-0.73,0.56-1.56,1.12-2.22,1.7l-0.85,0.72c1.19-3.72,1.84-7.66,1.84-11.75c0-1.77-0.13-3.51-0.37-5.22l1.57-14.78c1.46-0.53,3.06-0.61,4.54,0.44c4.18,2.96,2.88,10.41,7.46,12.07c4.58,1.66,11.24,1.25,13.59-9.01c2.35-10.25-2.77-10.15-2.77-25.92c0-15.77,7.91-6.57,7.91-6.57c7.08,17.21-5.83,30.67,2.5,32.33c8.33,1.67,10.82-10.68,10.82-10.68C502.1,400.65,492.94,372.48,488.36,362.9z"/>
<path fill="#94AFAE" d="M352.53,353.31c0,3.21,0.35,6.35,1,9.39l2.51,23.67l-0.18-0.88c0,0-6.63-4.28-8.3-17.6c-1.66-13.32-19.98-14.57-24.56-4.99c-4.58,9.57-13.74,37.75-6.66,57.18c0,0,2.5,12.35,10.82,10.68c8.33-1.66-4.58-15.12,2.5-32.33c0,0,7.91-9.21,7.91,6.57c0,15.77-5.12,15.67-2.77,25.92c2.35,10.25,9.01,10.67,13.59,9.01c4.58-1.67,3.28-9.12,7.46-12.07c1.48-1.04,3.08-0.96,4.54-0.44l1.54,14.54c-0.26,1.79-0.4,3.61-0.4,5.46c0,22.69,19.75,41.08,44.11,41.08h0V304.62C376.32,304.63,352.53,326.43,352.53,353.31z"/>
<path fill="#1D3136" d="M384.36,359.36c4.89,0,9.03,3.23,10.4,7.67c0.31-1.02,0.48-2.1,0.48-3.21c0-6.01-4.88-10.88-10.88-10.88c-6,0-10.88,4.87-10.88,10.88c0,1.12,0.17,2.2,0.48,3.21C375.33,362.59,379.47,359.36,384.36,359.36z"/>
<path fill="#1D3136" d="M427.78,359.36c4.89,0,9.03,3.23,10.4,7.67c0.31-1.02,0.48-2.1,0.48-3.21c0-6.01-4.87-10.88-10.88-10.88c-6.01,0-10.88,4.87-10.88,10.88c0,1.12,0.17,2.2,0.48,3.21C418.76,362.59,422.89,359.36,427.78,359.36z"/>
<path fill="#1D3136" d="M432.22,393.13c0.02-10.42-11.9-18.87-26.57-18.87c-14.67,0-26.57,8.45-26.57,18.87c0,0-0.24,22.37,9.89,24.17c0,0,4.03,0.28,5.13-3.61c1.11-3.89,1.94-8.05,4.86-8.75c2.91-0.69,1.67,8.05,1.67,8.05s-0.14,5.97,4.03,5.27c4.16-0.69,4.3-5.69,3.47-10.41c-0.83-4.72,0.83-7.77,2.78-6.94c1.94,0.83,3.61,6.11,3.19,10.41c-0.42,4.3,1.55,6.5,3.21,7C418.96,418.83,432.17,418.08,432.22,393.13z"/>
</symbol>

<symbol id="werewolf" viewBox="27 264 256 225">
<path fill="#5A8293" d="M154.38,390.44c-6.52,0-12.55,2.32-17.45,6.25c-1.45,0.27-2.85,0.92-4.03,1.98c-0.09,0.08-9.68,8.38-20.78,7.63c-5.81-0.4-11.08-3.21-16.08-8.53c2.21-5.46,0-12.41-4.72-16.47c-0.07-0.06-0.17,0.01-0.12,0.09c1.2,2.15,1.56,5.6,1.67,8.02c0.03,0.66-0.05,3.19-0.67,4.84c-1.12-0.61-2.36-0.95-3.62-1.01c-3.36-6.29-5.44-12.79-1.28-19.54c0.16-0.26-0.23-0.47-0.4-0.24c-3.91,5.39-5.82,12.22-4.56,18.85c0.16,0.84,0.37,1.78,0.62,2.78c-0.04,0.04-0.09,0.06-0.13,0.1c-0.11,0.1-0.2,0.21-0.3,0.32c-0.79-0.68-1.55-1.4-2.26-2.14c-4.12-4.3-5.87-10.92-5.11-16.73c0.07-0.53-0.81-0.76-1.02-0.28c-2.65,6.01-1.77,11.73,1.21,17.47c0.92,1.77,2.64,4.15,4.72,6.17c0,0,0,0.01,0,0.01c-5.84-0.89-11.57-4.52-15.03-9.02c-0.1-0.13-0.35-0.06-0.29,0.12c2.45,6.88,8.66,12.09,15.75,13.52c0.32,0.81,0.77,1.59,1.36,2.29c8.37,9.87,18.17,15.25,29.11,15.99c0.86,0.06,1.7,0.09,2.54,0.09c3.99,0,7.76-0.64,11.2-1.61c-0.03,0.59-0.05,1.19-0.05,1.79c0,6.9,1.94,13.29,5.24,18.57c-5.5,6.74-11.96,17.32-13.74,31.27c-5.21-1.1-11.97,0.36-16.31,1.78c-6.62,2.16-10.85,6.45-11.26,13.4c-0.01,0.16,0.22,0.21,0.29,0.08c2.9-5.42,8.05-8.5,13.86-9.64c-0.35,0.16-0.68,0.31-0.98,0.45c-3.5,1.68-6.25,4.41-7.95,7.88c-0.12,0.24,0.16,0.46,0.37,0.28c2.32-1.95,5.34-3.45,8.17-4.51c0.27-0.1,0.55-0.19,0.82-0.27c0.21,1.18,0.71,2.25,1.39,3.18c-2.03,0.51-4.06,1-6.15,1.29c-0.14,0.02-0.14,0.22-0.04,0.29c2.28,1.34,4.3,1.51,6.93,1.54c1.15,0.01,2.3-0.12,3.45-0.24c0.63,0.17,1.29,0.29,1.98,0.29h15.27c4.25,0,7.7-3.45,7.7-7.7c0-1.53-0.46-2.95-1.23-4.14c0.89-10.62,5.58-18.75,9.66-23.94c3.72,1.86,7.85,2.9,12.21,2.9h0L154.38,390.44L154.38,390.44z"/>
<path fill="#699BB7" d="M176.25,476.98c-0.77,1.2-1.23,2.62-1.23,4.14c0,4.25,3.45,7.7,7.7,7.7h15.27c0.69,0,1.34-0.12,1.98-0.29c1.15,0.12,2.3,0.25,3.45,0.24c2.63-0.03,4.65-0.2,6.93-1.54c0.11-0.06,0.1-0.27-0.04-0.29c-2.08-0.29-4.11-0.79-6.15-1.29c0.68-0.93,1.18-2,1.39-3.18c0.28,0.08,0.55,0.17,0.83,0.27c2.82,1.07,5.85,2.56,8.17,4.51c0.21,0.17,0.49-0.04,0.37-0.28c-1.7-3.47-4.45-6.2-7.95-7.88c-0.3-0.14-0.63-0.3-0.98-0.45c5.81,1.14,10.96,4.22,13.86,9.64c0.07,0.13,0.3,0.08,0.29-0.08c-0.41-6.95-4.64-11.25-11.25-13.4c-4.34-1.41-11.1-2.88-16.31-1.78c-1.78-13.96-8.24-24.54-13.74-31.28c3.3-5.28,5.24-11.67,5.24-18.57c0-0.6-0.02-1.2-0.05-1.79c3.44,0.97,7.21,1.61,11.2,1.61c0.84,0,1.69-0.03,2.54-0.09c10.95-0.75,20.75-6.13,29.12-15.99c0.6-0.7,1.05-1.48,1.36-2.29c7.09-1.43,13.31-6.64,15.75-13.52c0.06-0.18-0.19-0.25-0.29-0.12c-3.46,4.5-9.2,8.13-15.03,9.02c0,0,0-0.01,0-0.01c2.08-2.02,3.8-4.4,4.72-6.17c2.97-5.74,3.86-11.45,1.21-17.47c-0.21-0.48-1.09-0.26-1.02,0.28c0.77,5.81-0.99,12.43-5.11,16.73c-0.71,0.74-1.47,1.45-2.26,2.14c-0.11-0.1-0.19-0.22-0.3-0.32c-0.04-0.04-0.09-0.06-0.13-0.1c0.25-0.99,0.47-1.94,0.62-2.78c1.25-6.62-0.65-13.46-4.57-18.85c-0.17-0.24-0.57-0.03-0.4,0.24c4.16,6.75,2.08,13.25-1.28,19.54c-1.25,0.06-2.5,0.4-3.62,1.01c-0.61-1.65-0.7-4.17-0.66-4.84c0.12-2.42,0.47-5.87,1.67-8.02c0.04-0.08-0.06-0.15-0.12-0.09c-4.72,4.06-6.93,11.01-4.72,16.47c-4.99,5.32-10.27,8.13-16.08,8.53c-11.1,0.75-20.68-7.55-20.78-7.63c-1.18-1.06-2.58-1.71-4.04-1.98c-4.9-3.93-10.92-6.25-17.45-6.25v65.5c4.35,0,8.48-1.04,12.21-2.9C170.67,458.24,175.36,466.36,176.25,476.98z"/>
<ellipse fill="#ECDCCC" cx="154.38" cy="423.19" rx="17.76" ry="19.59"/>
<path fill="#5A8293" d="M154.38,307.73c-6.62,0-12.53,0.96-17.76,2.62l-7.95-30.01c-19.61,9.21-16.56,38.07-15.22,46.47c-3.74,5.16-6.14,10.83-7.23,16.3c0,0-1.53,13.83-9.86,19.38c0,0,17.16,60.52,58.01,60.7h0L154.38,307.73L154.38,307.73z"/>
<path fill="#699BB7" d="M212.39,362.49c-8.33-5.55-9.86-19.38-9.86-19.38h0c-0.76-6-3.14-11.97-7.08-17.25c1.38-9.43,3.57-36.63-15.36-45.52l-7.91,29.86c-5.28-1.57-11.22-2.46-17.8-2.46v115.46C189.49,422.75,212.39,362.49,212.39,362.49z"/>
<path fill="#E88683" d="M177.11,314.8l6.87-20.59c0,0,8.6,7.12,5.41,30.48l0.71,0.57L177.11,314.8z"/>
<path fill="#E88683" d="M131.66,314.8l-6.87-20.59c0,0-8.6,7.12-5.41,30.48l-0.71,0.57L131.66,314.8z"/>
<path fill="#DEDC9C" d="M119.27,358.63c0,0,2.68,12.17,19.11,12.17c0,0,4.49,0,8.09-2.78C146.47,368.02,135.93,356.17,119.27,358.63z"/>
<path fill="#DEDC9C" d="M189.49,358.63c0,0-2.69,12.17-19.11,12.17c0,0-4.49,0-8.09-2.78C162.29,368.02,172.84,356.17,189.49,358.63z"/>
<ellipse fill="#374449" cx="154.38" cy="402.22" rx="9.49" ry="5.98"/>
</symbol>

<symbol id="zombie" viewBox="277 504 256 225">
<path fill="#41CE9F" d="M434.29,679.32c0.46-1.77,2.29-2.83,4.05-2.38c0.13,0.03,2.32,0.56,5.19-0.15c0.61-6.89-0.55-12.46-3.54-16.94l0.02,0c7.7-7.8,15.51-6.5,15.52-6.5c2.89,5.26,4.46,11.22,4.75,17.82l10.16,2.31c1.79,0.41,2.92,2.19,2.51,3.99c-0.35,1.54-1.72,2.59-3.24,2.59c-0.24,0-0.49-0.03-0.74-0.08l-7.89-1.79l6.92,4.98c1.49,1.08,1.83,3.16,0.76,4.65c-0.65,0.9-1.67,1.38-2.71,1.38c-0.67,0-1.35-0.2-1.94-0.63l-5.92-4.27c-0.06,0.08-0.15,0.15-0.22,0.23l2.72,7.6c0.62,1.73-0.28,3.64-2.01,4.26c-0.37,0.13-0.75,0.2-1.12,0.2c-1.37,0-2.65-0.85-3.13-2.21l-2-5.59l-1.41,5.91c-0.37,1.53-1.73,2.55-3.24,2.55c-0.26,0-0.52-0.03-0.78-0.09c-1.79-0.43-2.89-2.22-2.46-4.02l1.83-7.64c-0.72-0.6-1.32-1.34-1.8-2.14c-1.5,0.32-2.88,0.44-4.05,0.44c-2.25,0-3.75-0.39-3.88-0.43C434.86,682.89,433.83,681.08,434.29,679.32z"/>
<path fill="#006633" d="M440.01,659.85l-0.02,0c-0.32-0.48-0.64-0.96-1-1.41c-6.92-8.65-19.52-10.1-19.83-10.13c-1.99-0.19-3.73-1.1-5.04-2.41l3.2-13.77c1.07-0.36,2.21-0.51,3.41-0.4c0.8,0.07,19.68,1.96,31.15,16.16c1.4,1.73,2.61,3.55,3.66,5.46C455.52,653.35,447.71,652.05,440.01,659.85z"/>
<path fill="#41CE9F" d="M422.48,703.31L422.48,703.31c2.73,1.03,6.22,5.63,6.22,5.63c0.83-2.91,0-7.7,0-7.7c1.46,1.25,5.48,5.83,5.48,5.83c0.69-2.08,0-6.98,0-6.98c2.35,1.14,6.27,4.26,6.3,4.29c0.79,2.8,1.39,5.79,1.77,8.94h5.39c4.25,0,7.7,3.45,7.7,7.7s-3.45,7.7-7.7,7.7h-15.27c-4.25,0-7.7-3.45-7.7-7.7c0-1.53,0.46-2.94,1.22-4.14C425.47,711.76,424.18,707.22,422.48,703.31z"/>
<path fill="#699BB7" d="M424.86,677.56L424.86,677.56c4.84,5,12.02,14.11,15.62,26.82c-0.03-0.03-3.96-3.15-6.3-4.29c0,0,0.69,4.9,0,6.98c0,0-4.02-4.58-5.48-5.83c0,0,0.83,4.79,0,7.7c0,0-3.49-4.6-6.22-5.63h0c-2.8-6.45-6.65-11.16-9.36-13.97l-0.24-3.22L424.86,677.56z"/>
<path fill="#006633" d="M407.04,674.06h27.95c1.11-3.44,1.75-7.12,1.75-10.98c0-8.63-3.03-16.47-7.97-22.32c-6.63,2.73-13.98,4.25-21.72,4.25V674.06z"/>
<path fill="#699BB7" d="M407.04,695.83c12.9,0,23.85-9.09,27.95-21.77h-27.95V695.83z"/>
<path fill="#23AF7C" d="M379.78,679.32c-0.46-1.77-2.29-2.83-4.05-2.38c-0.13,0.03-2.32,0.56-5.19-0.15c-0.61-6.89,0.55-12.46,3.54-16.94l-0.02,0c-7.7-7.8-15.51-6.5-15.52-6.5c-2.9,5.26-4.46,11.22-4.75,17.82l-10.16,2.31c-1.79,0.41-2.92,2.19-2.51,3.99c0.35,1.54,1.72,2.59,3.24,2.59c0.24,0,0.49-0.03,0.74-0.08l7.89-1.79l-6.92,4.98c-1.49,1.08-1.83,3.16-0.76,4.65c0.65,0.9,1.67,1.38,2.71,1.38c0.67,0,1.35-0.2,1.94-0.63l5.92-4.27c0.07,0.08,0.15,0.15,0.22,0.23l-2.72,7.6c-0.62,1.73,0.28,3.64,2.01,4.26c0.37,0.13,0.75,0.2,1.12,0.2c1.37,0,2.65-0.85,3.14-2.21l2-5.59l1.41,5.91c0.37,1.53,1.73,2.55,3.24,2.55c0.26,0,0.52-0.03,0.78-0.09c1.79-0.43,2.89-2.22,2.46-4.02l-1.83-7.64c0.72-0.6,1.32-1.34,1.8-2.14c1.5,0.32,2.88,0.44,4.05,0.44c2.25,0,3.75-0.39,3.88-0.43C379.21,682.89,380.24,681.08,379.78,679.32z"/>
<path fill="#23AF7C" d="M391.59,703.31L391.59,703.31c-2.73,1.03-6.22,5.63-6.22,5.63c-0.83-2.91,0-7.7,0-7.7c-1.46,1.25-5.48,5.83-5.48,5.83c-0.69-2.08,0-6.98,0-6.98c-2.35,1.14-6.27,4.26-6.31,4.29c-0.79,2.8-1.39,5.79-1.77,8.94h-5.39c-4.25,0-7.7,3.45-7.7,7.7s3.45,7.7,7.7,7.7h15.27c4.25,0,7.7-3.45,7.7-7.7c0-1.53-0.46-2.94-1.22-4.14C388.6,711.76,389.89,707.22,391.59,703.31z"/>
<path fill="#725679" d="M389.21,677.56L389.21,677.56c-4.84,5-12.02,14.11-15.62,26.82c0.03-0.03,3.96-3.15,6.31-4.29c0,0-0.69,4.9,0,6.98c0,0,4.02-4.58,5.48-5.83c0,0-0.83,4.79,0,7.7c0,0,3.49-4.6,6.22-5.63h0c2.8-6.45,6.65-11.16,9.36-13.97l0.24-3.22L389.21,677.56z"/>
<path fill="#0E4427" d="M399.64,644.52l-2.89-12.4c-1.06-0.36-2.21-0.51-3.41-0.4c-0.8,0.07-19.68,1.96-31.15,16.16c-1.4,1.73-2.61,3.55-3.66,5.46c0.01,0,7.83-1.3,15.52,6.5l0.02,0c0.32-0.48,0.64-0.96,1-1.41c0.94-1.18,1.99-2.22,3.1-3.14c-0.55,2.5-0.85,5.1-0.85,7.79c0,3.86,0.64,7.55,1.75,10.98h27.95v-29.05C404.52,645.01,402.06,644.84,399.64,644.52z"/>
<path fill="#725679" d="M379.09,674.06c4.1,12.68,15.05,21.77,27.95,21.77h0v-21.77H379.09z"/>
<path fill="#41CE9F" d="M459.85,590.92c-1.12-2.88-3.11-5.63-5.23-8.07c1.97,8.03,1.26,16.24-5.09,22.35c-0.63,0.61-1.7-0.17-1.22-0.95c5.33-8.73-1.62-20.59-8.15-28.76c1.4,4.98,1.78,10.34-0.85,14.76c-0.15,0.25-0.61,0.24-0.67-0.09c-1.19-6.96,0.05-14.29-6.87-18.65c-2.87-1.81-6.09-3.11-9.42-4c4.14,3.93,6.22,8.95,3.21,14.83c-0.12,0.24-0.51,0.24-0.63,0c-2.39-4.58-5.61-7.83-10.66-9.18c-2.33-0.62-4.8-1-7.24-1.47v58.62v14.68c7.74,0,15.09-1.53,21.72-4.25c18.52-7.61,31.43-24.64,31.43-44.44C460.19,594.49,460.07,592.69,459.85,590.92z"/>
<path fill="#575756" d="M464.34,564.6c-2.56-2.3-5.65-4.21-8.93-5.55c0.56-1.21,1.07-2.43,1.5-3.68c1.66-4.87,2.01-12.54-1.57-16.59c-0.1-0.11-0.21-0.18-0.33-0.2c-0.12-0.08-0.29-0.09-0.44,0.05c-0.03,0.03-0.06,0.05-0.1,0.08c-0.07,0.05-0.14,0.1-0.19,0.17c-3.5,3.09-6.88,4.77-11.63,5.1c-1.13,0.08-2.31,0.13-3.51,0.2c-0.58-8.41-5.16-17.75-10.04-22.45c-0.21-0.2-0.45-0.29-0.68-0.33c-0.07-0.18-0.13-0.36-0.2-0.54c-0.16-0.41-0.76-0.48-0.9,0c-1.99,6.84-2.3,13.29-6.03,19.59c-0.98,1.65-2.37,3.69-4,5.66c-1.14-5.13-3.31-10.07-5.7-13.75c-1.26-1.94-2.8-3.63-4.53-5.1v20.37v24.09c2.44,0.47,4.91,0.85,7.24,1.47c5.06,1.35,8.28,4.6,10.66,9.18c0.12,0.24,0.51,0.24,0.63,0c3.01-5.87,0.93-10.9-3.21-14.83c3.32,0.89,6.54,2.19,9.42,4c6.92,4.37,5.68,11.69,6.87,18.65c0.06,0.32,0.52,0.34,0.67,0.09c2.63-4.42,2.26-9.79,0.85-14.76c6.53,8.16,13.48,20.03,8.15,28.76c-0.47,0.77,0.59,1.55,1.22,0.95c6.35-6.12,7.06-14.32,5.09-22.35c2.11,2.44,4.11,5.19,5.23,8.07c0.74,1.9,1.1,3.86,0.84,5.83c-0.1,0.81,1.09,1.01,1.45,0.39c4.43-7.54,4.35-14.41,0.56-22.15c-0.73-1.49-1.72-3.04-2.89-4.57c0.38,0.17,0.76,0.33,1.16,0.53c1.81,0.94,3.55,2.11,5.3,3.16c1.88,1.12,2.92,3.02,4.88,4.02c0.39,0.2,0.97-0.04,0.94-0.54C471.79,572.91,467.72,567.64,464.34,564.6z"/>
<path fill="#23AF7C" d="M405.9,571.49c-2.46,5.72-6.33,10.64-10.9,12.44c-0.53,0.21-0.8-0.52-0.51-0.87c3.37-4.03,3.85-8.35,3.52-12.77c-0.17-0.03-0.34-0.04-0.51-0.07c-3.31,4.14-7.36,7.92-11.22,10.77c-7.08,5.24-13.46,7.2-22.24,6.18c-0.77-0.09-1.21-1.11-0.42-1.55c7.63-4.32,13.52-10.43,18.98-16.97c-2.96,0.56-5.85,1.5-8.54,2.81c-8.03,3.89-14.74,8.73-19.27,15.91c-0.59,2.9-0.91,5.89-0.91,8.95c0,19.8,12.91,36.83,31.43,44.44c6.63,2.73,13.98,4.26,21.72,4.26v-14.68v-58.62C406.66,571.63,406.28,571.57,405.9,571.49z"/>
<path fill="#47473F" d="M383.47,520.84c-0.55,0.08-0.47,0.79-0.14,1.05c3.82,2.89,6.61,6.11,9.12,9.62c-5.88-2.01-12.54-2.14-19.22-1.43c-10.37,1.11-26.85,4.83-32.42,14.77c-0.56,1,0.33,2.26,1.46,2c3.36,2.28,6.71,4.54,10.11,6.77c0.94,0.61,1.76,1.24,2.53,1.89c-0.81,0.24-1.64,0.47-2.52,0.68c-5.26,1.22-10.01,1.39-14.97,3.4c-0.28-0.2-0.58-0.41-0.85-0.61c-0.57-0.44-1.47,0.29-1.22,0.94c2.88,7.64,7.45,13.64,15.51,16.07c0.18,0.05,0.38,0.09,0.56,0.14c-1.67,5.09-1.83,10.79-0.16,16.96c0.09,0.32,0.49,0.27,0.6,0c0.83-2.06,1.82-3.96,2.93-5.72c4.53-7.17,11.24-12.02,19.27-15.91c2.69-1.3,5.59-2.24,8.54-2.81c-5.45,6.54-11.34,12.65-18.98,16.97c-0.79,0.44-0.35,1.46,0.42,1.55c8.77,1.02,15.15-0.94,22.24-6.18c3.85-2.85,7.9-6.63,11.22-10.77c0.17,0.03,0.34,0.05,0.51,0.07c0.33,4.42-0.14,8.74-3.52,12.77c-0.3,0.35-0.03,1.08,0.51,0.87c4.57-1.79,8.44-6.72,10.9-12.44c0.38,0.08,0.75,0.15,1.13,0.22v-24.09v-20.37C400.69,521.86,391.65,519.65,383.47,520.84z"/>
<path fill="#1D3136" d="M405.68,604.98v10.1h-5.97C399.72,615.08,399.44,607.14,405.68,604.98z"/>
<path fill="#374449" d="M408.39,604.98v10.1h5.97C414.35,615.08,414.63,607.14,408.39,604.98z"/>
<circle fill="#1D3136" cx="382.66" cy="599.29" r="9.08"/>
<circle fill="#6687A2" cx="429.25" cy="599.66" r="11.24"/>
<circle fill="#374449" cx="424.12" cy="599.66" r="6.11"/>
<path fill="#1D3136" d="M407.04,626.51c7.62,0,14.07,3.23,16.2,7.67c0.49-1.02,0.75-2.09,0.75-3.21c0-6.01-7.59-10.88-16.96-10.88c-9.36,0-16.96,4.87-16.96,10.88c0,1.12,0.26,2.2,0.75,3.21C392.97,629.74,399.41,626.51,407.04,626.51z"/>
</symbol>

<symbol id="skeleton" viewBox="27 504 256 225">
<circle fill="#C4DDD0" cx="111.3" cy="647.78" r="2.84"/>
<path fill="#C4DDD0" d="M106.97,618.87c-0.3-1.35-1.64-2.19-2.98-1.89c-0.18,0.04-2.83,0.67-5.76,2.82l-2.24-8.72c-0.34-1.34-1.71-2.14-3.04-1.8c-1.34,0.34-2.14,1.7-1.8,3.04l2.21,8.6l-6.45-5.89c-1.02-0.93-2.6-0.86-3.53,0.16c-0.93,1.02-0.86,2.6,0.16,3.53l6.66,6.09l-8.69-1.21c-1.36-0.2-2.63,0.76-2.82,2.13c-0.19,1.37,0.76,2.63,2.13,2.82l8.28,1.15l-4.93,4.25c-1.05,0.9-1.16,2.48-0.26,3.52c0.49,0.57,1.19,0.87,1.89,0.87c0.58,0,1.16-0.2,1.63-0.61L96.4,630c1.95-0.58,3.39-2.36,3.39-4.5c0-0.15-0.03-0.29-0.04-0.44c2.51-2.48,5.18-3.16,5.36-3.2C106.43,621.54,107.27,620.21,106.97,618.87z"/>
<path fill="#C4DDD0" d="M116.81,641.88c-1.29,0.26-2.13,1.52-1.87,2.81c0.26,1.29,1.52,2.13,2.81,1.87c-1.29,0.26-2.13,1.52-1.87,2.81c0.26,1.29,1.52,2.13,2.81,1.87c1.29-0.26,2.13-1.52,1.87-2.81l6.83-1.37c0.26,1.29,1.52,2.13,2.81,1.87c1.29-0.26,2.13-1.52,1.87-2.81c-0.26-1.29-1.52-2.13-2.81-1.87c1.29-0.26,2.13-1.52,1.87-2.81c-0.26-1.29-1.52-2.13-2.81-1.87c-1.29,0.26-2.13,1.52-1.87,2.81l-6.83,1.37C119.36,642.46,118.1,641.62,116.81,641.88z"/>
<path fill="#C4DDD0" d="M111.26,642.25c1.04-0.8,1.24-2.3,0.44-3.35c-0.8-1.05-2.3-1.24-3.35-0.44l-4.24-5.53c1.04-0.81,1.24-2.3,0.44-3.35c-0.8-1.04-2.3-1.24-3.35-0.44c-1.05,0.8-1.24,2.3-0.44,3.35c-0.8-1.05-2.3-1.24-3.35-0.44c-1.05,0.8-1.24,2.3-0.44,3.35c0.8,1.05,2.3,1.24,3.35,0.44l4.25,5.53c-1.05,0.8-1.24,2.3-0.44,3.35c0.8,1.05,2.3,1.24,3.35,0.44c1.05-0.8,1.24-2.3,0.44-3.34C108.71,642.86,110.21,643.06,111.26,642.25z"/>
<circle fill="#C4DDD0" cx="115.65" cy="704.52" r="2.84"/>
<path fill="#C4DDD0" d="M129.2,689.59c-0.77-1.07-2.26-1.32-3.33-0.56c-1.07,0.77-1.32,2.26-0.55,3.33l-5.67,4.05c-0.77-1.07-2.26-1.32-3.33-0.56c-1.07,0.77-1.32,2.26-0.55,3.33c0.77,1.07,2.26,1.32,3.33,0.56c-1.07,0.77-1.32,2.26-0.56,3.33c0.77,1.07,2.26,1.32,3.33,0.56c1.07-0.77,1.32-2.26,0.55-3.33l5.67-4.05c0.77,1.07,2.26,1.32,3.33,0.56c1.07-0.77,1.32-2.26,0.55-3.33c-0.77-1.07-2.26-1.32-3.33-0.56C129.72,692.16,129.97,690.66,129.2,689.59z"/>
<path fill="#C4DDD0" d="M131.38,716.94c0.94-0.93,0.95-2.44,0.02-3.38c-0.93-0.94-2.44-0.94-3.38-0.01l-4.91-4.95c0.94-0.93,0.94-2.44,0.02-3.38c-0.93-0.93-2.44-0.94-3.38-0.01c-0.94,0.93-0.94,2.44-0.02,3.38c-0.93-0.94-2.44-0.94-3.38-0.02c-0.94,0.93-0.94,2.44-0.02,3.38c0.93,0.93,2.44,0.94,3.38,0.01l4.91,4.95c-0.94,0.93-0.94,2.44-0.02,3.38c0.93,0.94,2.44,0.94,3.38,0.01c0.94-0.93,0.94-2.44,0.02-3.37C128.93,717.86,130.44,717.87,131.38,716.94z"/>
<path fill="#C4DDD0" d="M134.93,721c0-1.57-1.27-2.84-2.84-2.84c-1.57,0-2.84,1.27-2.84,2.84c0,0.62,0.21,1.2,0.55,1.66h-16.57c-1.67,0-3.03,1.36-3.03,3.03c0,1.67,1.36,3.03,3.03,3.03h18.36c1.67,0,3.03-1.36,3.03-3.03c0-0.91-0.41-1.72-1.05-2.27C134.38,722.92,134.93,722.02,134.93,721z"/>
<path fill="#C4DDD0" d="M155.21,638.24c0,1.86-1.31,3.41-3.05,3.79v0.91c-4.75-0.35-14.1,0.07-22.03,7.21c-1.37,1.23-1.48,3.34-0.25,4.7c0.66,0.73,1.57,1.1,2.48,1.1c0.79,0,1.59-0.28,2.23-0.86c6.46-5.82,14.23-5.82,17.57-5.49v1.15c-4.73-0.39-13.28,0.99-24.85,11.43c-1.37,1.23-1.47,3.34-0.24,4.7c0.66,0.73,1.56,1.1,2.47,1.1c0.8,0,1.59-0.28,2.23-0.86c10.69-9.64,17.71-10,20.39-9.64v1.46c-4.06-0.03-11.43,1.27-19.43,9.27c-1.3,1.3-1.3,3.41,0,4.71c0.65,0.65,1.5,0.97,2.36,0.97c0.85,0,1.71-0.32,2.35-0.97c6.57-6.57,12.15-7.39,14.72-7.34v13.13c-2.26-2.93-5.79-4.83-9.78-4.83c-6.82,0-12.35,5.53-12.35,12.35c0,6.82,5.53,12.35,12.35,12.35c4.01,0,7.56-1.92,9.82-4.88c0.17,1.6,1.47,2.85,3.1,2.95v-30.9v-0.14v-6.18v-0.14v-1.24V658v-6.48v-0.14v-1.55v-0.11v-6.22v-0.13v-4.32C155.25,638.79,155.21,638.52,155.21,638.24zM141.41,690.55c-3.37,0-6.11-2.73-6.11-6.11c0-3.37,2.73-6.11,6.11-6.11c3.37,0,6.1,2.73,6.1,6.11C147.52,687.82,144.78,690.55,141.41,690.55z"/>
<path fill="#F6F6F6" d="M155.21,627.13v11.11c0,0.28,0.03,0.54,0.09,0.81v-11.91H155.21z"/>
<path fill="#F6F6F6" d="M155.3,624.78c-0.05,0.26-0.09,0.53-0.09,0.81v1.55h0.09V624.78z"/>
<path fill="#1D3136" d="M141.32,609.97c8.72-3.69,8.51-15.21,6.4-20.31c-2.11-5.1-12,2.49-18.78,3.85c-8.33,1.67-8.53,9-4.9,13.16C128.94,612.29,134.95,612.67,141.32,609.97z"/>
<path fill="#C4DDD0" d="M130.31,551.78c-11.96,0-21.65,9.69-21.65,21.65v32.06c0,11.96,9.69,21.65,21.65,21.65h1.6v11.11c0,2.15,1.74,3.88,3.88,3.88c2.15,0,3.89-1.74,3.89-3.88c0,2.15,1.74,3.88,3.88,3.88c2.15,0,3.89-1.74,3.89-3.88c0,2.15,1.74,3.88,3.88,3.88c0.29,0,0.57-0.04,0.84-0.09c1.74-0.38,3.05-1.93,3.05-3.79v-11.11v-1.55c0-0.28,0.03-0.55,0.09-0.81v-11.91v-61.08H130.31z M124.04,606.67c-3.63-4.16-3.43-11.5,4.9-13.16c6.78-1.36,16.67-8.94,18.78-3.85c2.11,5.1,2.31,16.61-6.4,20.31C134.95,612.67,128.94,612.29,124.04,606.67z"/>
<circle fill="#F6F6F6" cx="199.7" cy="641.41" r="2.84"/>
<path fill="#F6F6F6" d="M230.17,660.65l-8.28-1.15l4.93-4.25c1.05-0.9,1.16-2.48,0.26-3.52c-0.9-1.04-2.48-1.16-3.52-0.26l-8.96,7.72c-1.96,0.58-3.39,2.36-3.39,4.5c0,0.15,0.03,0.29,0.04,0.44c-2.51,2.48-5.18,3.16-5.36,3.2c-1.34,0.31-2.18,1.64-1.88,2.98c0.26,1.16,1.29,1.95,2.44,1.95c0.18,0,0.37-0.02,0.55-0.06c0.18-0.04,2.83-0.67,5.76-2.82l2.24,8.72c0.29,1.13,1.3,1.88,2.42,1.88c0.21,0,0.41-0.03,0.62-0.08c1.34-0.34,2.14-1.7,1.8-3.04l-2.21-8.6l6.45,5.89c0.48,0.44,1.08,0.65,1.69,0.65c0.68,0,1.35-0.27,1.84-0.81c0.93-1.02,0.86-2.6-0.16-3.53l-6.66-6.09l8.69,1.21c0.12,0.02,0.23,0.02,0.35,0.02c1.23,0,2.3-0.9,2.47-2.15C232.49,662.1,231.54,660.84,230.17,660.65z"/>
<path fill="#F6F6F6" d="M194.18,647.31c1.29-0.26,2.13-1.52,1.87-2.81c-0.26-1.29-1.52-2.13-2.81-1.87c1.29-0.26,2.13-1.52,1.87-2.81c-0.26-1.29-1.52-2.13-2.81-1.87c-1.29,0.26-2.13,1.52-1.87,2.81l-6.83,1.37c-0.26-1.29-1.52-2.13-2.81-1.87c-1.29,0.26-2.13,1.52-1.87,2.81c0.26,1.29,1.52,2.13,2.81,1.87c-1.29,0.26-2.13,1.52-1.87,2.81c0.26,1.29,1.52,2.13,2.81,1.87c1.29-0.26,2.13-1.52,1.87-2.81l6.83-1.37C191.63,646.73,192.89,647.57,194.18,647.31z"/>
<path fill="#F6F6F6" d="M206.44,659.6c0.8,1.05,2.3,1.24,3.35,0.44c1.05-0.8,1.24-2.3,0.44-3.35c0.8,1.05,2.3,1.24,3.35,0.44c1.05-0.8,1.24-2.3,0.44-3.35c-0.8-1.05-2.3-1.24-3.35-0.44l-4.24-5.53c1.04-0.8,1.24-2.3,0.44-3.35c-0.8-1.05-2.3-1.24-3.35-0.44c-1.05,0.8-1.24,2.3-0.44,3.34c-0.8-1.04-2.3-1.24-3.35-0.44c-1.05,0.8-1.24,2.3-0.44,3.35c0.8,1.05,2.3,1.24,3.35,0.44l4.24,5.53C205.84,657.05,205.64,658.55,206.44,659.6z"/>
<circle fill="#F6F6F6" cx="195.34" cy="704.52" r="2.84"/>
<path fill="#F6F6F6" d="M179.57,696.81c1.07,0.77,2.56,0.52,3.33-0.56l5.67,4.05c-0.77,1.07-0.52,2.56,0.55,3.33c1.07,0.76,2.56,0.52,3.33-0.56c0.77-1.07,0.52-2.56-0.56-3.33c1.07,0.77,2.56,0.52,3.33-0.56c0.77-1.07,0.52-2.56-0.55-3.33c-1.07-0.77-2.56-0.52-3.33,0.56l-5.67-4.05c0.77-1.07,0.52-2.56-0.55-3.33c-1.07-0.77-2.57-0.52-3.33,0.56c-0.77,1.07-0.52,2.56,0.55,3.33c-1.07-0.77-2.56-0.52-3.33,0.56C178.25,694.55,178.49,696.04,179.57,696.81z"/>
<path fill="#F6F6F6" d="M194.65,711.95c0.93-0.94,0.92-2.45-0.02-3.38c-0.94-0.93-2.45-0.92-3.38,0.02c0.93-0.94,0.92-2.45-0.01-3.38c-0.94-0.93-2.45-0.92-3.38,0.01c-0.93,0.94-0.92,2.45,0.02,3.38l-4.91,4.95c-0.94-0.93-2.45-0.92-3.38,0.01c-0.93,0.94-0.92,2.45,0.02,3.38c0.94,0.93,2.45,0.92,3.38-0.01c-0.93,0.93-0.92,2.45,0.02,3.37c0.93,0.93,2.45,0.92,3.38-0.01c0.93-0.94,0.92-2.45-0.02-3.38l4.91-4.95C192.21,712.89,193.72,712.88,194.65,711.95z"/>
<path fill="#F6F6F6" d="M197.77,722.66H181.2c0.34-0.47,0.55-1.04,0.55-1.66c0-1.57-1.27-2.84-2.84-2.84c-1.57,0-2.84,1.27-2.84,2.84c0,1.03,0.55,1.92,1.37,2.42c-0.63,0.56-1.04,1.36-1.04,2.27c0,1.67,1.36,3.03,3.03,3.03h18.36c1.67,0,3.03-1.36,3.03-3.03C200.8,724.02,199.45,722.66,197.77,722.66z"/>
<path fill="#F6F6F6" d="M155.3,643.36v0.13c0.06-0.02,0.13-0.05,0.2-0.06C155.43,643.41,155.37,643.38,155.3,643.36z"/>
<path fill="#F6F6F6" d="M155.3,649.71v0.11c0.07-0.02,0.13-0.04,0.19-0.06C155.43,649.75,155.36,649.73,155.3,649.71z"/>
<path fill="#F6F6F6" d="M155.3,658v0.04c0.03,0,0.06-0.02,0.09-0.02C155.36,658.01,155.33,658,155.3,658z"/>
<path fill="#F6F6F6" d="M155.3,651.38v0.14c0.06-0.02,0.13-0.05,0.2-0.07C155.43,651.42,155.37,651.4,155.3,651.38z"/>
<path fill="#F6F6F6" d="M155.42,659.32c-0.02,0-0.06-0.02-0.12-0.03v0.14c0.07-0.02,0.13-0.05,0.2-0.08C155.47,659.34,155.45,659.32,155.42,659.32z"/>
<path fill="#F6F6F6" d="M155.3,665.74c0.08-0.02,0.17-0.03,0.25-0.06c-0.09-0.03-0.17-0.05-0.25-0.08V665.74z"/>
<path fill="#F6F6F6" d="M183.68,662.19c-11.57-10.43-20.12-11.82-24.85-11.43v-1.14c3.33-0.32,11.13-0.32,17.57,5.48c0.64,0.57,1.43,0.86,2.23,0.86c0.91,0,1.82-0.37,2.48-1.1c1.23-1.37,1.12-3.47-0.25-4.7c-7.93-7.14-17.29-7.56-22.03-7.21v-0.84c-1.74-0.12-3.17-1.38-3.53-3.05v4.32c0.07,0.02,0.13,0.04,0.2,0.06c-0.07,0.02-0.13,0.04-0.2,0.06v6.22c0.06,0.02,0.13,0.04,0.19,0.06c-0.06,0.02-0.13,0.04-0.19,0.06v1.55c0.07,0.02,0.13,0.04,0.2,0.07c-0.07,0.02-0.13,0.05-0.2,0.07V658c0.03,0.01,0.06,0.01,0.09,0.02c-0.03,0.01-0.06,0.02-0.09,0.02v1.24c0.06,0.01,0.1,0.03,0.12,0.03c0.03,0.01,0.05,0.02,0.07,0.03c-0.07,0.02-0.13,0.05-0.2,0.08v6.18c0.08,0.03,0.17,0.06,0.25,0.08c-0.08,0.03-0.17,0.04-0.25,0.06v30.9c0.07,0,0.13,0.02,0.2,0.02c1.72,0,3.11-1.3,3.29-2.97c2.25,2.96,5.81,4.88,9.82,4.88c6.82,0,12.35-5.53,12.35-12.35c0-6.82-5.53-12.35-12.35-12.35c-3.99,0-7.52,1.9-9.78,4.83v-13.12c2.57-0.05,8.14,0.77,14.72,7.34c0.65,0.65,1.5,0.97,2.36,0.97c0.85,0,1.7-0.32,2.35-0.97c1.3-1.3,1.3-3.41,0-4.71c-7.99-7.99-15.36-9.29-19.43-9.27v-1.46c2.68-0.35,9.7,0,20.39,9.64c0.64,0.57,1.43,0.86,2.23,0.86c0.91,0,1.82-0.37,2.47-1.1C185.15,665.53,185.04,663.42,183.68,662.19z M169.58,678.34c3.37,0,6.11,2.73,6.11,6.11c0,3.37-2.73,6.11-6.11,6.11c-3.37,0-6.11-2.73-6.11-6.11C163.47,681.08,166.21,678.34,169.58,678.34z"/>
<path fill="#45565B" d="M169.67,609.97c6.37,2.7,12.38,2.31,17.27-3.3c3.63-4.16,3.43-11.5-4.9-13.16c-6.78-1.36-16.67-8.94-18.78-3.85C161.16,594.77,160.96,606.28,169.67,609.97z"/>
<path fill="#F6F6F6" d="M180.68,551.78H155.3v61.08v11.91v2.36v11.91c0.35,1.67,1.78,2.93,3.53,3.05c0.09,0.01,0.18,0.03,0.27,0.03c2.15,0,3.89-1.74,3.89-3.88c0,2.15,1.74,3.88,3.89,3.88c2.14,0,3.88-1.74,3.88-3.88c0,2.15,1.74,3.88,3.88,3.88c2.15,0,3.88-1.74,3.88-3.88v-11.11h2.16c11.96,0,21.65-9.69,21.65-21.65v-32.06C202.33,561.47,192.64,551.78,180.68,551.78zM186.95,606.67c-4.9,5.61-10.91,6-17.27,3.3c-8.72-3.69-8.51-15.21-6.4-20.31c2.11-5.1,12,2.49,18.78,3.85C190.38,595.18,190.58,602.52,186.95,606.67z"/>
</symbol>

<symbol id="vampire" viewBox="519 264 256 225">
<path fill="#1D1D1B" d="M649.58,481.13c0,4.25-3.45,7.7-7.7,7.7h-15.27c-4.25,0-7.7-3.45-7.7-7.7l0,0c0-4.25,3.45-7.7,7.7-7.7h15.27C646.14,473.43,649.58,476.88,649.58,481.13L649.58,481.13z"/>
<path fill="#1D3136" d="M680.15,481.13c0,4.25-3.45,7.7-7.7,7.7h-15.27c-4.25,0-7.7-3.45-7.7-7.7l0,0c0-4.25,3.45-7.7,7.7-7.7h15.27C676.71,473.43,680.15,476.88,680.15,481.13L680.15,481.13z"/>
<path fill="#374449" d="M736.53,400.96c-8.33-11.34-23.73-10.52-23.73-10.52h-63.41v96.15c0.15,0.72,0.23,1.47,0.23,2.24c0-6.1,4.94-11.04,11.04-11.04c6.1,0,11.04,4.94,11.04,11.04c0-6.1,4.94-11.04,11.04-11.04c3.2,0,6.08,1.36,8.1,3.53l2.88,6.33c0-21.25,2.64-50.78,15.33-50.78c9.58,0,11.66,5.83,11.66,5.83s0-11.66,10.41-11.66s12.07,11.66,12.07,11.66S744.86,412.31,736.53,400.96z"/>
<path fill="#1D3136" d="M605.27,433.43v55.4h0.19c0-6.1,4.94-11.04,11.04-11.04c6.1,0,11.04,4.94,11.04,11.04c0-6.1,4.95-11.04,11.04-11.04c5.33,0,9.78,3.78,10.82,8.8v-96.15C625.02,390.44,605.27,409.69,605.27,433.43z"/>
<path fill="#F7D3C2" d="M596.48,356.43c0,0-5.27-9.76-13.32-12.26c0,0-2.22,34.08,19.57,34.08L596.48,356.43z"/>
<path fill="#F7EADF" d="M702.59,356.43c0,0,5.27-9.76,13.32-12.26c0,0,2.22,34.08-19.57,34.08L702.59,356.43z"/>
<path fill="#F7EADF" d="M702.83,337.34c-4.26-9.88-14.08-16.79-25.52-16.79c-15.35,0-27.79,12.44-27.79,27.79c0-0.92-0.05-1.82-0.13-2.71v59.5c0.1,0,0.2,0,0.29,0c27.89,0,48.24-19.2,52.58-44.64c0.23-1.34,0.43-2.69,0.56-4.06C703.59,348.98,703.54,342.69,702.83,337.34z"/>
<path fill="#374449" d="M649.53,348.34c0-15.35,12.44-27.79,27.79-27.79c11.44,0,21.26,6.92,25.52,16.79c-3.93-29.42-28.3-32.94-53.14-32.94c-0.1,0-0.2,0-0.29,0v41.22C649.48,346.51,649.53,347.42,649.53,348.34z"/>
<path fill="#F7D3C2" d="M621.74,320.55c-11.7,0-21.69,7.24-25.79,17.47c-0.48,5.2-0.34,11.27,0.58,18.41c0.23,1.82,0.53,3.57,0.86,5.29c5.54,28.59,24.46,43.3,52,43.4v-59.5C648.03,331.55,636.17,320.55,621.74,320.55z"/>
<path fill="#1D3136" d="M595.96,338.02c4.1-10.23,14.09-17.47,25.79-17.47c14.43,0,26.29,11,27.65,25.07V304.4C624.36,304.42,598.82,307.23,595.96,338.02z"/>
<path fill="#9E2E18" d="M614.42,358.63c0,0,2.69,12.17,19.11,12.17c0,0,4.49,0,8.09-2.78C641.62,368.02,631.08,356.17,614.42,358.63z"/>
<path fill="#C14727" d="M684.64,358.63c0,0-2.68,12.17-19.11,12.17c0,0-4.49,0-8.09-2.78C657.45,368.02,667.99,356.17,684.64,358.63z"/>
<path fill="#C14727" d="M634.13,386.64c0,0,5.27,3.89,15.27,3.89c9.99,0,15.54-3.89,15.54-3.89v9.61l-4.26-4.8C660.68,391.44,644.26,396.77,634.13,386.64z"/>
</symbol>

<symbol id="jacko" viewBox="277 27 256 225">
<path fill="#1C824C" d="M414.37,55.82c-0.03,0.03-0.22,0.26-0.62,0.76c-0.4,0.5-0.96,1.25-1.59,2.17c-0.62,0.93-1.33,2.01-1.97,3.22c-0.67,1.19-1.24,2.5-1.76,3.78c-0.21,0.65-0.46,1.29-0.62,1.92c-0.13,0.63-0.35,1.24-0.41,1.82c-0.06,0.58-0.22,1.13-0.2,1.64c0,0.5-0.08,0.98-0.02,1.39c0.04,0.4,0.07,0.78,0.09,1.1c0.04,0.32,0.14,0.58,0.18,0.79c0.09,0.42,0.14,0.67,0.14,0.67l0.01,0.05c0.78,3.65-1.54,7.23-5.19,8.01c-3.65,0.78-7.23-1.54-8.01-5.19c-0.15-0.71-0.18-1.44-0.11-2.12c0,0,0.06-0.56,0.16-1.53c0.06-0.48,0.11-1.07,0.24-1.72c0.16-0.64,0.33-1.35,0.53-2.14c0.19-0.78,0.53-1.54,0.83-2.38c0.28-0.85,0.74-1.62,1.14-2.46c0.4-0.85,0.93-1.6,1.41-2.42c0.51-0.79,1.08-1.53,1.62-2.28c1.16-1.44,2.35-2.79,3.55-3.94c1.18-1.18,2.36-2.15,3.36-2.98c1.03-0.81,1.9-1.45,2.53-1.88c0.63-0.44,1.06-0.71,1.03-0.69c1.22-1.01,3.03-0.85,4.04,0.37C415.75,53,415.58,54.81,414.37,55.82z"/>
<path fill="#1C824C" d="M479.29,196.78c-0.04-1.84-1.61-3.31-3.41-3.25l-10.39,0.26c-2.58-8.63-7.23-15.51-13.9-20.5c-8.14-6.1-17.57-7.93-24.46-8.33c-5.44-6.83-13.41-11.14-22.3-11.14c-0.11,0-0.21,0.01-0.32,0.01v65.48c0.11,0,0.21,0.01,0.32,0.01c3.97,0,7.76-0.87,11.22-2.43c3.99,5.2,8.43,13.15,9.29,23.45c-0.78,1.2-1.23,2.63-1.23,4.17c0,4.25,3.45,7.7,7.7,7.7h15.27c4.25,0,7.7-3.45,7.7-7.7c0-4.25-3.45-7.7-7.7-7.7h-5.37c-1.63-13.52-7.65-23.9-13.03-30.73c3.67-5.45,5.84-12.2,5.84-19.51c0-1.21-0.06-2.4-0.18-3.57c2.51,0.78,5.05,1.95,7.35,3.69c4.79,3.62,7.69,9.11,8.9,16.67c-2.58,1.37-4.81,1.41-4.98,1.41c-1.81-0.04-3.33,1.44-3.36,3.27c-0.03,1.84,1.43,3.36,3.27,3.39c0.01,0,0.03,0,0.07,0c0.54,0,3.82-0.09,7.59-1.94c0.67,0.67,1.44,1.22,2.3,1.63l0.1,7.84c0.03,1.83,1.51,3.29,3.33,3.29c0.01,0,0.03,0,0.04,0c1.84-0.03,3.31-1.54,3.29-3.38l-0.08-6.08l3.31,4.93c0.64,0.96,1.7,1.47,2.77,1.47c0.64,0,1.28-0.18,1.85-0.57c1.53-1.03,1.93-3.1,0.91-4.62l-4.49-6.68c0.05-0.1,0.09-0.2,0.13-0.3l6.79,2.69c0.4,0.16,0.82,0.23,1.22,0.23c1.33,0,2.58-0.8,3.1-2.11c0.68-1.71-0.16-3.65-1.87-4.32l-7.93-3.13l8.09-0.2C477.88,200.14,479.33,198.62,479.29,196.78z"/>
<path fill="#006633" d="M382.27,165.27c-6.96,0.59-17.12,2.76-25.52,9.79c-6.39,5.35-10.66,12.46-12.77,21.22l-10.39,0.3c-1.84,0.05-3.29,1.59-3.23,3.43c0.05,1.8,1.53,3.23,3.33,3.23c0.03,0,0.07,0,0.1,0l8.08-0.23l-7.75,3.56c-1.67,0.77-2.4,2.74-1.64,4.42c0.56,1.22,1.77,1.94,3.03,1.94c0.46,0,0.94-0.1,1.39-0.3l6.64-3.05c0.05,0.1,0.09,0.2,0.15,0.29l-4.12,6.91c-0.94,1.58-0.43,3.62,1.15,4.57c0.54,0.32,1.12,0.47,1.7,0.47c1.13,0,2.24-0.58,2.86-1.62l3.04-5.1l0.25,6.07c0.07,1.79,1.55,3.19,3.33,3.19c0.05,0,0.09,0,0.14,0c1.84-0.08,3.27-1.63,3.19-3.46l-0.32-7.84c0.83-0.46,1.58-1.04,2.21-1.74c3.21,1.37,6.02,1.53,7.19,1.53c0.32,0,0.52-0.01,0.56-0.02c1.82-0.13,3.18-1.7,3.07-3.53c-0.11-1.82-1.65-3.2-3.51-3.12c-0.13,0.01-2.38,0.1-5.06-1.15c0.8-7.62,3.41-13.25,7.99-17.12c2.42-2.05,5.18-3.42,7.9-4.35c-0.08,0.99-0.13,2-0.13,3.01c0,7.31,2.17,14.06,5.84,19.51c-5.38,6.83-11.4,17.21-13.03,30.73h-5.37c-4.25,0-7.7,3.45-7.7,7.7c0,4.25,3.45,7.7,7.7,7.7h15.27c4.25,0,7.7-3.45,7.7-7.7c0-1.54-0.46-2.97-1.23-4.17c0.87-10.3,5.3-18.24,9.29-23.44c3.37,1.52,7.05,2.37,10.91,2.42v-65.48C395.61,153.92,387.65,158.34,382.27,165.27z"/>
<polygon fill="none" points="404.62,147.26 413.68,158.79 420.27,147.06 430.16,154.26 433.45,142.83 442.72,145.41 448.9,125.64 437.57,135.94 430.57,136.35 425.83,142.22 418,139.02 412.44,145.41 404.82,138.2 404.51,138.51 404.51,147.41"/>
<path fill="#F39200" d="M437.32,78.19c-3.03,0-5.97,0.58-8.75,1.65c-6.64-6.18-14.85-9.84-23.74-9.84c-0.11,0-0.21,0.01-0.32,0.01v68.5l0.32-0.31l7.62,7.21l5.56-6.38l7.83,3.19l4.73-5.87l7-0.41l11.33-10.3l-6.18,19.77l-9.27-2.57l-3.29,11.43l-9.89-7.21l-6.59,11.74l-9.06-11.53l-0.11,0.15v23.57c0.11,0,0.21,0.01,0.32,0.01c6.81,0,13.22-2.15,18.84-5.94c4.16,2.64,8.78,4.12,13.65,4.12c18.15,0,32.86-20.37,32.86-45.49S455.46,78.19,437.32,78.19z"/>
<polygon fill="#1D3136" points="392.05,137.58 383.4,141.29 379.01,135.16 370.84,135.94 360.75,126.87 366.11,147.67 376.2,143.35 378.87,153.23 389.79,146.44 396.17,158.79 404.51,147.41 404.51,138.51 397.61,145.2"/>
<path fill="#B56A10" d="M396.17,158.79l-6.38-12.36l-10.91,6.8l-2.68-9.89l-10.09,4.33l-5.36-20.8l10.09,9.06l8.17-0.77l4.4,6.13l8.65-3.71l5.56,7.62l6.89-6.7v-68.5c-8.77,0.09-16.86,3.72-23.42,9.83c-2.79-1.07-5.72-1.65-8.76-1.65c-18.15,0-32.86,20.37-32.86,45.49s14.71,45.49,32.86,45.49c4.88,0,9.5-1.48,13.66-4.12c5.53,3.73,11.83,5.86,18.52,5.92v-23.57L396.17,158.79z"/>
<path fill="#F9B233" d="M380.99,79.83c0,0-0.76,1.33-1.99,3.65c-1.21,2.33-2.88,5.68-4.62,9.74c-0.86,2.04-1.71,4.26-2.54,6.63c-0.81,2.37-1.6,4.87-2.23,7.49c-0.68,2.61-1.15,5.33-1.54,8.09c-0.14,1.39-0.32,2.78-0.37,4.18c-0.12,1.4-0.11,2.8-0.08,4.21c-0.03,1.4,0.16,2.79,0.22,4.19c0.24,1.37,0.31,2.76,0.61,4.11c0.3,1.34,0.51,2.7,0.92,3.99c0.18,0.65,0.36,1.3,0.54,1.95c0.22,0.63,0.44,1.26,0.66,1.88c0.22,0.62,0.44,1.24,0.66,1.86c0.27,0.6,0.53,1.19,0.79,1.77c0.26,0.59,0.51,1.17,0.76,1.75c0.3,0.56,0.59,1.11,0.88,1.65c1.08,2.22,2.38,4.19,3.52,6.06c1.31,1.75,2.36,3.51,3.52,4.88c1.14,1.39,2.05,2.73,2.94,3.68c1.72,1.99,2.67,3.2,2.67,3.2s-1.31-0.76-3.56-2.22c-1.15-0.7-2.41-1.72-3.88-2.89c-1.52-1.12-3-2.64-4.68-4.26c-1.55-1.73-3.32-3.58-4.82-5.84c-0.39-0.55-0.79-1.12-1.18-1.69c-0.35-0.6-0.71-1.21-1.07-1.83c-0.36-0.62-0.72-1.25-1.08-1.88c-0.31-0.66-0.62-1.33-0.94-2.01c-0.3-0.68-0.65-1.36-0.93-2.06c-0.25-0.72-0.51-1.44-0.77-2.17c-0.57-1.44-0.91-2.97-1.29-4.5c-0.39-1.53-0.58-3.12-0.85-4.69c-0.1-1.59-0.33-3.19-0.32-4.79c-0.07-3.21,0.22-6.39,0.72-9.47c0.55-3.07,1.29-6.05,2.28-8.82c0.93-2.79,2.09-5.38,3.28-7.77c1.2-2.39,2.51-4.54,3.78-6.47c2.53-3.87,5.06-6.77,6.9-8.71C379.78,80.78,380.99,79.83,380.99,79.83z"/>
<path fill="#F9B233" d="M428.66,79.83c0,0,1.2,0.95,3.06,2.88c1.84,1.93,4.37,4.83,6.9,8.71c1.27,1.93,2.58,4.08,3.78,6.47c1.19,2.39,2.35,4.98,3.29,7.77c0.99,2.77,1.72,5.75,2.28,8.82c0.5,3.08,0.79,6.27,0.72,9.47c0.01,1.6-0.22,3.2-0.32,4.79c-0.26,1.58-0.46,3.16-0.85,4.69c-0.39,1.53-0.72,3.06-1.29,4.5c-0.26,0.73-0.51,1.45-0.77,2.17c-0.28,0.71-0.62,1.38-0.93,2.06c-0.31,0.68-0.63,1.35-0.94,2.01c-0.37,0.63-0.72,1.26-1.08,1.88c-0.36,0.62-0.72,1.22-1.07,1.83c-0.4,0.57-0.79,1.13-1.18,1.69c-1.5,2.26-3.26,4.11-4.82,5.84c-1.68,1.62-3.16,3.14-4.68,4.26c-1.46,1.17-2.73,2.19-3.88,2.89c-2.25,1.46-3.56,2.22-3.56,2.22s0.95-1.22,2.67-3.2c0.9-0.96,1.8-2.29,2.94-3.68c1.17-1.38,2.22-3.14,3.53-4.88c1.14-1.88,2.43-3.84,3.52-6.06c0.29-0.54,0.58-1.09,0.88-1.65c0.25-0.58,0.5-1.16,0.76-1.75c0.26-0.58,0.52-1.17,0.79-1.77c0.22-0.61,0.44-1.23,0.66-1.86c0.22-0.62,0.44-1.25,0.66-1.88c0.18-0.64,0.36-1.29,0.54-1.95c0.41-1.29,0.62-2.65,0.92-3.99c0.3-1.34,0.37-2.74,0.61-4.11c0.06-1.39,0.25-2.78,0.22-4.19c0.03-1.4,0.04-2.81-0.08-4.21c-0.04-1.4-0.23-2.79-0.37-4.18c-0.39-2.76-0.86-5.49-1.54-8.09c-0.63-2.62-1.42-5.12-2.23-7.49c-0.83-2.36-1.68-4.59-2.54-6.63c-1.74-4.06-3.4-7.41-4.62-9.74C429.42,81.16,428.66,79.83,428.66,79.83z"/>
<path fill="#1D3136" d="M358.49,109.21c0,0,3.54,16.05,25.21,16.05c0,0,5.92,0,10.68-3.66C394.38,121.61,380.46,105.98,358.49,109.21z"/>
<path fill="#374449" d="M451.16,109.21c0,0-3.54,16.05-25.21,16.05c0,0-5.92,0-10.68-3.66C415.26,121.61,429.18,105.98,451.16,109.21z"/>
<polygon fill="#374449" points="437.57,135.94 430.57,136.35 425.83,142.22 418,139.02 412.44,145.41 404.82,138.2 404.51,138.51 404.51,147.41 404.62,147.26 413.68,158.79 420.27,147.06 430.16,154.26 433.45,142.83 442.72,145.41 448.9,125.64"/>
<polygon fill="#1D3136" points="397.61,145.2 392.05,137.58 383.4,141.29 379.01,135.16 370.84,135.94 360.75,126.87 366.11,147.67 376.2,143.35 378.87,153.23 389.79,146.44 396.17,158.79 404.51,147.41 404.51,138.51"/>
</symbol>

<symbol id="witch" viewBox="519 504 256 225">
<path fill="#A34072" d="M703.84,535.56c-4.97-22.36-29.81-25.4-29.81-25.4c-9.13-0.42-17.03,0.32-23.85,1.86v40.44l40.45-0.31c0,0-18.06-24.37-8.7-23.7c9.37,0.68,14.34,9.82,14.34,9.82s1.69,6.43,5.76,5.28C706.1,542.38,703.84,535.56,703.84,535.56z"/>
<path fill="#693D56" d="M607.66,552.78l42.53-0.33v-40.44C613.04,520.43,607.66,552.78,607.66,552.78z"/>
<path fill="#693D56" d="M714.17,581.04c0-20.69-28.64-37.46-63.98-37.5v86.83C701.75,630.33,714.17,601.74,714.17,581.04z"/>
<path fill="#691F3E" d="M650.06,543.54c-35.4,0-64.1,16.79-64.1,37.5c0,20.71,15.86,49.34,64.1,49.34c0.04,0,0.08,0,0.12,0v-86.83C650.14,543.54,650.1,543.54,650.06,543.54z"/>
<path fill="#1D3136" d="M634.01,635.67c-10.61-5.52-23.56-18.12-26.42-32.86c-0.17-0.86-0.29-1.76-0.43-2.65c0,0-1.14,25.93-23.27,25.93c0,0,9.94,11.48,27.1,0.44c0,0-4.29,13.63-17.61,13.63c0,0,16.26,7.35,27.1-8.44c0,0,1.58,10.18-8.81,15.83c0,0,2.02,0.61,4.94,0.56C619.07,642.18,628.85,639.47,634.01,635.67z"/>
<path fill="#374449" d="M716.23,626.1c-19.71,0-22.77-20.55-23.2-25.05c-0.03,0.26-0.06,0.51-0.11,0.77c-2.32,13.55-17.3,25.06-28.85,31.3c5.35,3.83,16.64,8.91,19.16,15c3.07,0.1,5.22-0.55,5.22-0.55c-10.39-5.64-8.81-15.83-8.81-15.83c10.84,15.79,27.1,8.44,27.1,8.44c-13.32,0-17.61-13.63-17.61-13.63C706.29,637.58,716.23,626.1,716.23,626.1z"/>
<path fill="#A34072" d="M694.09,673.3c0-5.67-1.14-11.08-3.19-16.03c-3.09-7.48-8.27-13.92-14.85-18.63c-7.25-5.19-16.19-8.28-25.87-8.32v98.39h44.11v-1.18v-23.33V673.3H694.09z"/>
<path fill="#693D56" d="M649.96,630.31c-9.98,0-19.18,3.23-26.58,8.68c-6.35,4.68-11.35,10.99-14.37,18.29c-2.04,4.95-3.18,10.36-3.18,16.02v55.4h0.19h44.16v-98.39C650.11,630.31,650.04,630.31,649.96,630.31z"/>
<path fill="#CA9E67" d="M711.77,725.19c0,1.45-1.17,2.62-2.62,2.62l0,0c-1.45,0-2.62-1.17-2.62-2.62V711.8c0-1.45,1.17-2.62,2.62-2.62l0,0c1.45,0,2.62,1.17,2.62,2.62V725.19z"/>
<path fill="#CA9E67" d="M717.01,725.19c0,1.45-1.17,2.62-2.62,2.62l0,0c-1.45,0-2.62-1.17-2.62-2.62V711.8c0-1.45,1.17-2.62,2.62-2.62l0,0c1.45,0,2.62,1.17,2.62,2.62V725.19z"/>
<path fill="#CA9E67" d="M722.25,725.19c0,1.45-1.17,2.62-2.62,2.62l0,0c-1.45,0-2.62-1.17-2.62-2.62V711.8c0-1.45,1.17-2.62,2.62-2.62l0,0c1.45,0,2.62,1.17,2.62,2.62V725.19z"/>
<path fill="#CA9E67" d="M727.49,725.19c0,1.45-1.17,2.62-2.62,2.62l0,0c-1.45,0-2.62-1.17-2.62-2.62V711.8c0-1.45,1.17-2.62,2.62-2.62l0,0c1.45,0,2.62,1.17,2.62,2.62V725.19z"/>
<path fill="#CA9E67" d="M732.73,725.19c0,1.45-1.17,2.62-2.62,2.62l0,0c-1.45,0-2.62-1.17-2.62-2.62V711.8c0-1.45,1.17-2.62,2.62-2.62l0,0c1.45,0,2.62,1.17,2.62,2.62V725.19z"/>
<path fill="#CA9E67" d="M737.97,725.19c0,1.45-1.17,2.62-2.62,2.62l0,0c-1.45,0-2.62-1.17-2.62-2.62V711.8c0-1.45,1.17-2.62,2.62-2.62l0,0c1.45,0,2.62,1.17,2.62,2.62V725.19z"/>
<path fill="#CA9E67" d="M743.2,725.19c0,1.45-1.17,2.62-2.62,2.62l0,0c-1.45,0-2.62-1.17-2.62-2.62V711.8c0-1.45,1.17-2.62,2.62-2.62l0,0c1.45,0,2.62,1.17,2.62,2.62V725.19z"/>
<path fill="#CA9E67" d="M748.44,725.19c0,1.45-1.17,2.62-2.62,2.62l0,0c-1.45,0-2.62-1.17-2.62-2.62V711.8c0-1.45,1.17-2.62,2.62-2.62l0,0c1.45,0,2.62,1.17,2.62,2.62V725.19z"/>
<path fill="#936037" d="M727.49,678.03c-2.3,0-4.16-1.86-4.16-4.16V549.32c0-2.3,1.86-4.16,4.16-4.16c2.3,0,4.16,1.86,4.16,4.16v124.55C731.65,676.17,729.79,678.03,727.49,678.03z"/>
<ellipse fill="#936037" cx="727.49" cy="681.55" rx="20.95" ry="15.6"/>
<rect x="706.54" y="681.55" fill="#CA9E67" width="41.91" height="37.86"/>
<path fill="#936037" d="M711.77,725.19c0,0-0.06-0.68-0.16-1.88c-0.04-0.6-0.1-1.32-0.16-2.15c-0.07-0.83-0.14-1.77-0.1-2.79c0-4.09,0-9.55,0-15c0-5.46,0-10.91,0-15c-0.04-1.02,0.03-1.96,0.1-2.79c0.06-0.83,0.11-1.55,0.16-2.15c0.1-1.19,0.16-1.88,0.16-1.88s0.06,0.68,0.16,1.88c0.04,0.6,0.1,1.32,0.16,2.15c0.07,0.83,0.14,1.77,0.1,2.79c0,4.09,0,9.55,0,15c0,5.46,0,10.91,0,15c0.04,1.02-0.03,1.96-0.1,2.79c-0.06,0.83-0.11,1.55-0.16,2.15C711.83,724.51,711.77,725.19,711.77,725.19z"/>
<path fill="#936037" d="M717.01,725.19c0,0-0.06-0.68-0.16-1.88c-0.04-0.6-0.1-1.32-0.16-2.15c-0.07-0.83-0.14-1.77-0.1-2.79c0-4.09,0-9.55,0-15c0-5.46,0-10.91,0-15c-0.04-1.02,0.03-1.96,0.1-2.79c0.06-0.83,0.11-1.55,0.16-2.15c0.1-1.19,0.16-1.88,0.16-1.88s0.06,0.68,0.16,1.88c0.04,0.6,0.1,1.32,0.16,2.15c0.07,0.83,0.14,1.77,0.1,2.79c0,4.09,0,9.55,0,15c0,5.46,0,10.91,0,15c0.04,1.02-0.03,1.96-0.1,2.79c-0.06,0.83-0.11,1.55-0.16,2.15C717.07,724.51,717.01,725.19,717.01,725.19z"/>
<path fill="#936037" d="M722.25,725.19c0,0-0.06-0.68-0.16-1.88c-0.04-0.6-0.1-1.32-0.16-2.15c-0.07-0.83-0.14-1.77-0.1-2.79c0-4.09,0-9.55,0-15c0-5.46,0-10.91,0-15c-0.04-1.02,0.03-1.96,0.1-2.79c0.06-0.83,0.11-1.55,0.16-2.15c0.1-1.19,0.16-1.88,0.16-1.88s0.06,0.68,0.16,1.88c0.04,0.6,0.1,1.32,0.16,2.15c0.07,0.83,0.14,1.77,0.1,2.79c0,4.09,0,9.55,0,15c0,5.46,0,10.91,0,15c0.04,1.02-0.03,1.96-0.1,2.79c-0.06,0.83-0.11,1.55-0.16,2.15C722.31,724.51,722.25,725.19,722.25,725.19z"/>
<path fill="#936037" d="M727.49,725.19c0,0-0.06-0.68-0.16-1.88c-0.04-0.6-0.1-1.32-0.16-2.15c-0.07-0.83-0.14-1.77-0.1-2.79c0-4.09,0-9.55,0-15c0-5.46,0-10.91,0-15c-0.04-1.02,0.03-1.96,0.1-2.79c0.06-0.83,0.11-1.55,0.16-2.15c0.1-1.19,0.16-1.88,0.16-1.88s0.06,0.68,0.16,1.88c0.04,0.6,0.1,1.32,0.16,2.15c0.07,0.83,0.14,1.77,0.1,2.79c0,4.09,0,9.55,0,15c0,5.46,0,10.91,0,15c0.04,1.02-0.03,1.96-0.1,2.79c-0.06,0.83-0.11,1.55-0.16,2.15C727.55,724.51,727.49,725.19,727.49,725.19z"/>
<path fill="#936037" d="M732.73,725.19c0,0-0.06-0.68-0.16-1.88c-0.04-0.6-0.1-1.32-0.16-2.15c-0.07-0.83-0.14-1.77-0.1-2.79c0-4.09,0-9.55,0-15c0-5.46,0-10.91,0-15c-0.04-1.02,0.03-1.96,0.1-2.79c0.06-0.83,0.11-1.55,0.16-2.15c0.1-1.19,0.16-1.88,0.16-1.88s0.06,0.68,0.16,1.88c0.04,0.6,0.1,1.32,0.16,2.15c0.07,0.83,0.14,1.77,0.1,2.79c0,4.09,0,9.55,0,15c0,5.46,0,10.91,0,15c0.04,1.02-0.03,1.96-0.1,2.79c-0.06,0.83-0.11,1.55-0.16,2.15C732.79,724.51,732.73,725.19,732.73,725.19z"/>
<path fill="#936037" d="M737.97,725.19c0,0-0.06-0.68-0.16-1.88c-0.04-0.6-0.1-1.32-0.16-2.15c-0.07-0.83-0.13-1.77-0.1-2.79c0-4.09,0-9.55,0-15c0-5.46,0-10.91,0-15c-0.04-1.02,0.03-1.96,0.1-2.79c0.06-0.83,0.11-1.55,0.16-2.15c0.1-1.19,0.16-1.88,0.16-1.88s0.06,0.68,0.16,1.88c0.04,0.6,0.1,1.32,0.16,2.15c0.07,0.83,0.14,1.77,0.1,2.79c0,4.09,0,9.55,0,15c0,5.46,0,10.91,0,15c0.04,1.02-0.03,1.96-0.1,2.79c-0.06,0.83-0.11,1.55-0.16,2.15C738.02,724.51,737.97,725.19,737.97,725.19z"/>
<path fill="#936037" d="M743.2,725.19c0,0-0.06-0.68-0.16-1.88c-0.04-0.6-0.1-1.32-0.16-2.15c-0.07-0.83-0.14-1.77-0.1-2.79c0-4.09,0-9.55,0-15c0-5.46,0-10.91,0-15c-0.04-1.02,0.03-1.96,0.1-2.79c0.06-0.83,0.11-1.55,0.16-2.15c0.1-1.19,0.16-1.88,0.16-1.88s0.06,0.68,0.16,1.88c0.04,0.6,0.1,1.32,0.16,2.15c0.07,0.83,0.14,1.77,0.1,2.79c0,4.09,0,9.55,0,15c0,5.46,0,10.91,0,15c0.04,1.02-0.03,1.96-0.1,2.79c-0.06,0.83-0.11,1.55-0.16,2.15C743.26,724.51,743.2,725.19,743.2,725.19z"/>
<path fill="#A34072" d="M698.36,665.79c-16.98,0-29.92-11.43-30.49-11.94c-3.42-3.07-3.71-8.33-0.64-11.76c3.06-3.41,8.3-3.7,11.73-0.66c0.22,0.2,9.86,8.46,20.91,7.65c6.34-0.46,12.05-3.78,17.44-10.14c2.98-3.51,8.23-3.94,11.74-0.96c3.51,2.97,3.94,8.23,0.96,11.73c-8.37,9.87-18.17,15.25-29.12,15.99C700.05,665.76,699.2,665.79,698.36,665.79z"/>
<ellipse transform="matrix(0.9494 -0.3141 0.3141 0.9494 -165.7256 261.3463)" fill="#F7CFAC" cx="728.01" cy="644.87" rx="10.68" ry="12.94"/>
<path fill="#1D3136" d="M650.18,728.7c-19.14-6.47-22.97-11.95-27.63-15.22c-5.13-3.6-12.54-4-16.54-2.72c-5.07,1.62-14.82,7.86-21.29,0c0,0,0,0,0,0c0,19.24,12.31,17.94,38.54,17.94l8.89-6.25v6.25H650.18z"/>
<path fill="#374449" d="M649.94,728.7c19.14-6.47,22.97-11.95,27.63-15.22c5.13-3.6,12.54-4,16.54-2.72c5.07,1.62,14.82,7.86,21.29,0c0,0,0,0,0,0c0,19.24-12.31,17.94-38.54,17.94l-8.89-6.25v6.25H649.94z"/>
<path fill="none" d="M688.14,600.25c0.02,0,0.04,0,0.06,0c-18.44-0.03-32.98-8.13-37.86-19.21c-0.02,0.05-0.05,0.11-0.08,0.16C655.22,592.21,669.75,600.25,688.14,600.25z"/>
<path fill="#374449" d="M693.42,582.98c-3.2-23.94-23.03-24.09-43.24-24.09h0v22.16c0,0,0-0.01,0-0.01c0.02,0.05,0.05,0.11,0.08,0.16c0.02-0.05,0.05-0.11,0.08-0.16c4.88,11.08,19.42,19.18,37.86,19.21c1.65,0,3.27-0.07,4.86-0.2c0,0,0,0.01,0,0.01c0.05,0,0.1,0,0.15-0.01c0.07-0.51,0.16-1.02,0.21-1.54C694.04,592.45,694,587.33,693.42,582.98z"/>
<path fill="#F7CFAC" d="M688.2,600.25c-0.02,0-0.04,0-0.06,0c-18.39,0-32.92-8.04-37.88-19.05c-0.03,0.06-0.05,0.11-0.08,0.17v56.75c5.87-0.02,11.32-1.09,16.25-3.02c14.05-5.5,23.77-18.01,26.39-33.3c0.04-0.25,0.07-0.51,0.11-0.77c0.04-0.33,0.09-0.66,0.14-0.98c-1.57,0.12-3.16,0.19-4.77,0.19C688.26,600.25,688.23,600.25,688.2,600.25z"/>
<path fill="#F7CFAC" d="M650.26,581.2c-0.03-0.05-0.05-0.11-0.08-0.16c0,0,0,0.01,0,0.01v0.32C650.21,581.31,650.24,581.26,650.26,581.2z"/>
<path fill="#F7CFAC" d="M688.2,600.25c0.03,0,0.06,0,0.09,0c1.62,0,3.21-0.07,4.77-0.19c0,0,0-0.01,0-0.01C691.47,600.18,689.85,600.25,688.2,600.25z"/>
<path fill="#1D3136" d="M606.47,583.53c-0.39,4.23-0.28,9.17,0.47,14.98c0.07,0.57,0.18,1.1,0.27,1.66c1.03,0.05,2.07,0.09,3.13,0.09c18.43-0.03,34.96-8.13,39.84-19.2v-22.16C629.74,558.89,608.81,558.38,606.47,583.53z"/>
<path fill="#F7B285" d="M610.39,600.25c-0.02,0-0.03,0-0.05,0c-0.04,0-0.07,0-0.1,0c-1.07,0-2.13-0.04-3.18-0.09c0.14,0.89,0.26,1.79,0.43,2.65c3.34,17.25,12.68,28.27,26.42,32.86c4.85,1.62,10.24,2.46,16.13,2.46c0.05,0,0.1,0,0.15,0v-56.75C645.12,592.3,628.69,600.25,610.39,600.25z"/>
<path fill="#693D56" d="M610.34,600.25c0.02,0,0.03,0,0.05,0c18.3,0,34.73-7.96,39.79-18.88v-0.32C645.3,592.12,628.77,600.22,610.34,600.25z"/>
<path fill="#006633" d="M629.83,602.08c4.56,0,8.41,3.01,9.69,7.15c0.29-0.95,0.45-1.95,0.45-2.99c0-5.6-4.54-10.14-10.14-10.14c-5.6,0-10.14,4.54-10.14,10.14c0,1.04,0.16,2.05,0.45,2.99C621.42,605.09,625.28,602.08,629.83,602.08z"/>
<path fill="#1C824C" d="M670.29,602.08c4.56,0,8.41,3.01,9.69,7.15c0.29-0.95,0.45-1.95,0.45-2.99c0-5.6-4.54-10.14-10.14-10.14c-5.6,0-10.14,4.54-10.14,10.14c0,1.04,0.16,2.05,0.45,2.99C661.88,605.09,665.74,602.08,670.29,602.08z"/>
</symbol>

<symbol id="mummy" viewBox="519 27 256 225">
<path fill="#725679" d="M641.17,114.68c-0.17-1.91-0.58-3.65-1.12-4.96c-2.11-5.1-12,2.49-18.78,3.85c-2.46,0.49-4.19,1.48-5.34,2.73c-0.85,0.92-1.38,1.99-1.63,3.11c-0.55,2.51,0.3,5.29,2.07,7.32c1.32,1.52,2.73,2.64,4.2,3.44c2.58,1.39,5.36,1.75,8.26,1.29c1.57-0.25,3.18-0.74,4.81-1.43c5.47-2.32,7.43-7.72,7.6-12.68C641.28,116.43,641.25,115.54,641.17,114.68z"/>
<path fill="#725679" d="M675.65,113.89c-0.4-0.12-0.82-0.24-1.27-0.33c-1.35-0.27-2.83-0.79-4.34-1.41c-6.08-2.47-12.75-6.52-14.44-2.44c-0.46,1.1-0.81,2.51-1.02,4.07c-0.11,0.83-0.17,1.7-0.18,2.59c-0.04,3.84,0.95,8.08,3.81,11.04c0.55,0.57,1.18,1.09,1.88,1.55c0.59,0.39,1.21,0.76,1.92,1.05c3.53,1.49,6.94,2.04,10.12,1.27c0.93-0.22,1.85-0.57,2.74-1.03c1.55-0.8,3.03-1.96,4.42-3.55C682.71,122.79,682.7,116.02,675.65,113.89z"/>
<path fill="none" d="M655.6,109.72c-0.46,1.1-0.81,2.51-1.02,4.07c-0.11,0.83-0.17,1.7-0.18,2.59c-0.04,3.84,0.95,8.08,3.81,11.04c0.55,0.57,1.18,1.09,1.88,1.55c0.59,0.39,1.21,0.76,1.92,1.05c3.53,1.49,6.94,2.04,10.12,1.27c0.93-0.22,1.85-0.57,2.74-1.03c1.55-0.8,3.03-1.96,4.42-3.55c3.43-3.93,3.43-10.7-3.63-12.83c-0.4-0.12-0.82-0.24-1.27-0.33c-1.35-0.27-2.83-0.79-4.34-1.41C663.96,109.69,657.29,105.64,655.6,109.72z"/>
<path fill="none" d="M671.98,206.46c1.24-0.57,2.51-1.07,3.81-1.48c-0.96-0.21-1.91-0.5-2.97-0.76c-0.37,0.63-0.74,1.25-1.15,1.85C671.78,206.2,671.88,206.33,671.98,206.46z"/>
<path fill="#F7EAC2" d="M667.3,233.96c0.45,1.88,0.8,3.87,0.99,5.95c5-2.93,10.88-4.97,15.86-6.67c-0.46-2.48-1.05-4.84-1.76-7.08c0,0-0.01,0-0.01,0C676.44,227.58,671.5,229.91,667.3,233.96z"/>
<path fill="#F7EAC2" d="M666.03,229.65c0.35,0.98,0.66,1.99,0.95,3.04c3.74-4.36,9.09-7.31,14.64-8.8c-0.72-2-1.52-3.9-2.38-5.7C673.8,220.81,668.94,224.9,666.03,229.65z"/>
<path fill="#F7EAC2" d="M659.78,202.57c-4.18-0.07-8.35,0.06-12.53,0.12v16.61c0.19,0,0.38,0.02,0.57,0.02c3.85,0,7.53-0.82,10.9-2.29c3.56-4.46,8.12-8.18,13.25-10.56c-0.1-0.13-0.2-0.27-0.3-0.39c0.4-0.6,0.78-1.22,1.15-1.85c-0.21-0.05-0.41-0.1-0.62-0.15C668.1,203.2,663.98,202.64,659.78,202.57z"/>
<path fill="#F7EAC2" d="M677.23,252.2h12.85c4.25,0,7.7-3.45,7.7-7.7c0-3.23-1.99-5.99-4.8-7.13c-1.94,2.57-3.41,5.55-4.11,8.69c-0.03,0.16-0.29,0.12-0.28-0.04c0.13-2.48,1.17-6.03,2.91-9.08c-0.46-0.09-0.94-0.14-1.42-0.14h-3.88c-3.44,3.84-6.45,8.03-8.21,12.96C677.69,250.6,677.44,251.41,677.23,252.2z"/>
<path fill="#F7EAC2" d="M667.12,244.73c0.12,4.02,3.32,7.27,7.32,7.46c1.87-6.22,5.9-12.39,10.23-15.66c-0.09-0.69-0.18-1.37-0.29-2.05c-3.87,2.25-7.93,4.13-11.76,6.49C670.74,242.13,668.85,243.33,667.12,244.73z"/>
<path fill="#F7EAC2" d="M728.01,167.6l-7.16-1.44c0.02-0.11,0.04-0.21,0.05-0.32l7.39-3.16c1.69-0.72,2.48-2.68,1.75-4.37c-0.72-1.69-2.69-2.47-4.37-1.75l-5.46,2.33l3.37-5.05c1.02-1.53,0.61-3.6-0.92-4.62c-1.53-1.02-3.6-0.61-4.62,0.92l-4.35,6.53c-0.94-0.12-1.89-0.08-2.81,0.12c-2.29-3.82-5.2-5.68-5.38-5.8c-1.55-0.97-3.57-0.49-4.56,1.05c-0.98,1.54-0.52,3.59,1.01,4.59c0.11,0.07,1.99,1.33,3.43,3.92c-3.24,3.59-6.59,6.11-10.13,7.59c-1.51,4.42-1.4,9.23-0.19,13.8c0.3,1.14,0.61,2.29,0.94,3.42c2.97-0.71,5.84-1.79,8.61-3.23c-2.79-3.71-4.63-7.79-5.35-12.4c-0.03-0.18,0.21-0.25,0.27-0.07c1.44,4.16,3.47,8.42,6.51,11.69c2.28-1.31,4.5-2.88,6.63-4.7l8.58,5.87c0.58,0.39,1.23,0.58,1.88,0.58c1.06,0,2.11-0.51,2.75-1.45c1.04-1.52,0.65-3.59-0.87-4.63l-6.68-4.56l8.36,1.68c0.22,0.04,0.44,0.07,0.66,0.07c1.55,0,2.94-1.09,3.26-2.67C730.98,169.72,729.82,167.96,728.01,167.6z"/>
<path fill="#F7EAC2" d="M675.65,113.89c7.06,2.13,7.06,8.9,3.63,12.83c-1.39,1.59-2.87,2.75-4.42,3.55c1.3,0.31,2.6,0.62,3.9,0.96c5.8,1.52,11.54,3.25,17.2,5.2c0.25,0.08,0.65,0.27,1.14,0.51c2.49-5.64,3.87-11.8,3.87-18.26c0-2.55-0.22-5.06-0.63-7.5c-1.65-0.58-3.34-1.09-5.04-1.53C689.14,112.19,682.33,113.07,675.65,113.89z"/>
<path fill="#F7EAC2" d="M650.61,84.31c10.68-1.52,21.82-2.63,32.71-1.86c-9.41-7.74-21.85-12.46-35.49-12.46c-0.19,0-0.38,0.01-0.57,0.01v14.83C648.37,84.66,649.49,84.47,650.61,84.31z"/>
<path fill="#F7EAC2" d="M672.12,131.3c-3.18,0.76-6.59,0.22-10.12-1.27c-0.7-0.3-1.33-0.66-1.92-1.05c-4.25-0.67-8.52-1.18-12.83-1.51v7.98c1.37,0.34,2.74,0.69,4.1,1.05c8.26,2.19,16.6,4.21,24.69,6.99c3.95,1.36,9.39,2.86,13.5,5.35c2.67-3.1,4.94-6.5,6.74-10.14c-4.77-1.8-9.64-3.43-14.53-4.86C678.55,132.9,675.34,132.05,672.12,131.3z"/>
<path fill="#F7EAC2" d="M647.25,126.79c3.66,0.03,7.31,0.25,10.95,0.63c-2.86-2.96-3.85-7.2-3.81-11.04c-2.38,0.2-4.75,0.38-7.14,0.55V126.79z"/>
<path fill="#F7EAC2" d="M679.24,177.71c0.41-1.81,1.37-5.39,2.78-8.6c-5.67-1.28-10.33-4.26-12.6-5.92c2.28-0.93,4.48-2.01,6.57-3.21c-3.78-0.34-7.53-0.73-11.42-0.63c-4.89,0.12-9.67-0.05-14.54-0.56c-0.93-0.1-1.85-0.21-2.78-0.32v12.77c4.83,1.7,9.68,3.31,14.28,5.63c5.63,2.84,11.09,6.08,15.97,10.09c0-0.13,0.01-0.26,0.01-0.4c0-0.48-0.01-0.96-0.03-1.43c0.68,0.17,1.38,0.32,2.08,0.46C678.65,183.24,678.62,180.45,679.24,177.71z"/>
<path fill="#F7EAC2" d="M656.4,158.03c3.99,0.05,8.72-0.67,13.33-0.85c-7.47-1.63-14.98-3.18-22.47-4.78v5.21C650.33,157.87,653.4,157.99,656.4,158.03z"/>
<path fill="#F7EAC2" d="M647.25,180.75v9.17c9.54,2.34,18.94,5.41,27.98,9.22c0.44-1.17,0.81-2.38,1.13-3.62c-4.34-3.5-9.6-6.65-14.8-8.62C656.69,185.06,651.96,182.94,647.25,180.75z"/>
<path fill="#F7EAC2" d="M647.25,173.36v6.29c5.99,2.54,12.17,4.58,18.1,7.24c4,1.79,7.91,3.78,11.55,6.19c0.19-1.03,0.34-2.07,0.44-3.14c-2.58-2.16-5.16-4.3-8.03-6.13C662.26,179.3,654.91,176.41,647.25,173.36z"/>
<path fill="#F7EAC2" d="M693.85,168.65c-0.9,0.3-1.82,0.55-2.75,0.72c-2.45,3.79-3.84,7.8-2.54,13.26c0.05,0.21-0.24,0.28-0.32,0.09c-1.84-4.35-1.29-9,0.69-13.07c-0.03,0-0.07,0.01-0.1,0.01c-1.45,0.11-2.86,0.04-4.24-0.12c-0.99,1.78-1.87,3.63-2.49,5.57c-1.11,3.48-1.99,7.62-0.59,10.8c1.87,0.28,3.8,0.46,5.79,0.46c0.84,0,1.69-0.03,2.54-0.09c1.35-0.09,2.69-0.26,4.01-0.5c-0.21-0.78-0.33-1.33-0.36-1.46C692.36,179.38,691.72,173.42,693.85,168.65z"/>
<path fill="#F7EAC2" d="M647.25,86.43v15.71c4.27-0.03,8.54,0.09,12.82,0.37c12.51,0.82,26.8,0.98,39.42,4.78c-2.04-7.78-6.11-14.83-11.67-20.65C674.53,84.24,660.8,84.75,647.25,86.43z"/>
<path fill="#F7EAC2" d="M672.35,145.47c-7.6-2.51-15.33-4.57-23-6.84c-0.7-0.21-1.39-0.4-2.09-0.6v11.87c11.29,2.16,22.6,4.22,33.8,6.77c2.1-1.54,4.07-3.23,5.89-5.04c-0.91-0.55-1.83-1.08-2.8-1.53C680.31,148.31,676.36,146.8,672.35,145.47z"/>
<path fill="#F7EAC2" d="M647.25,191.84v8.73c4.18,0.01,8.36-0.02,12.53,0.21c4.83,0.26,9.22,1.08,13.65,2.32c0.45-0.84,0.86-1.7,1.23-2.58c-6.51-1.25-12.73-4.26-18.98-6.3C652.9,193.31,650.09,192.52,647.25,191.84z"/>
<path fill="#F7EAC2" d="M654.58,113.79c0.21-1.56,0.56-2.97,1.02-4.07c1.69-4.08,8.36-0.03,14.44,2.44c0.24-0.03,0.47-0.06,0.71-0.09c7.29-1.01,15.04-1.12,22.22-3c-2.44-0.56-4.9-1.01-7.34-1.4c-9.58-1.52-19.38-2.91-29.06-3.52c-3.09-0.19-6.2-0.3-9.31-0.35v10.49C649.7,114.15,652.14,113.98,654.58,113.79z"/>
<path fill="#F7EAC2" d="M659.56,217.56c1.45,1.96,2.93,4.26,4.26,6.91c2.74-3.22,5.79-6.18,8.47-8.9c0.15-0.15,0.37,0.08,0.23,0.23c-2.87,3.13-5.67,6.46-8.05,10.02c0.38,0.83,0.75,1.69,1.1,2.57c2.96-4.74,7.79-8.61,12.39-11.39c0.17-0.1,0.36-0.21,0.54-0.32c-1.75-3.4-3.67-6.39-5.56-8.96C667.89,209.84,663.3,213.43,659.56,217.56z"/>
<path fill="#938C77" d="M650.61,84.31c-1.12,0.16-2.24,0.35-3.35,0.52v1.6c13.55-1.68,27.28-2.19,40.57,0.21c-1.41-1.48-2.91-2.88-4.51-4.19C672.43,81.68,661.29,82.8,650.61,84.31z"/>
<path fill="#938C77" d="M647.25,102.14v1.67c3.11,0.04,6.21,0.15,9.31,0.35c9.68,0.61,19.48,2,29.06,3.52c2.44,0.39,4.9,0.84,7.34,1.4c-7.18,1.88-14.93,1.99-22.22,3c-0.24,0.03-0.47,0.06-0.71,0.09c1.51,0.62,2.99,1.14,4.34,1.41c0.45,0.09,0.87,0.2,1.27,0.33c6.68-0.82,13.5-1.7,19.66-4.24c1.7,0.44,3.38,0.95,5.04,1.53c-0.22-1.32-0.51-2.61-0.85-3.89c-12.62-3.8-26.91-3.96-39.42-4.78C655.8,102.23,651.52,102.11,647.25,102.14z"/>
<path fill="#938C77" d="M654.39,116.38c0.01-0.9,0.07-1.76,0.18-2.59c-2.44,0.19-4.88,0.36-7.32,0.52v2.62C649.64,116.76,652.02,116.58,654.39,116.38z"/>
<path fill="#938C77" d="M651.36,136.49c-1.36-0.36-2.73-0.7-4.1-1.05v2.59c0.7,0.2,1.39,0.39,2.09,0.6c7.67,2.27,15.41,4.32,23,6.84c4.01,1.33,7.96,2.84,11.8,4.63c0.96,0.45,1.88,0.98,2.8,1.53c0.91-0.9,1.78-1.84,2.61-2.8c-4.11-2.49-9.55-4-13.5-5.35C667.96,140.7,659.62,138.68,651.36,136.49z"/>
<path fill="#938C77" d="M647.25,152.4c7.49,1.6,15,3.14,22.47,4.78c-4.61,0.18-9.33,0.9-13.33,0.85c-3-0.04-6.06-0.16-9.14-0.42v0.85c0.92,0.11,1.85,0.22,2.78,0.32c4.86,0.51,9.65,0.68,14.54,0.56c3.9-0.09,7.64,0.29,11.42,0.63c1.76-1.01,3.45-2.11,5.06-3.3c-11.2-2.55-22.51-4.62-33.8-6.77V152.4z"/>
<path fill="#938C77" d="M647.25,171.23v2.13c7.65,3.04,15.01,5.93,22.06,10.44c2.87,1.84,5.46,3.97,8.03,6.13c0.09-0.98,0.15-1.98,0.16-2.98c-4.88-4.01-10.34-7.25-15.97-10.09C656.94,174.55,652.09,172.94,647.25,171.23z"/>
<path fill="#938C77" d="M647.25,179.65v1.1c4.7,2.19,9.44,4.31,14.31,6.16c5.2,1.97,10.46,5.12,14.8,8.62c0.21-0.8,0.39-1.62,0.54-2.45c-3.64-2.41-7.55-4.4-11.55-6.19C659.43,184.23,653.25,182.19,647.25,179.65z"/>
<path fill="#938C77" d="M647.25,191.84c2.84,0.68,5.65,1.47,8.44,2.38c6.24,2.04,12.47,5.05,18.98,6.3c0.2-0.46,0.39-0.91,0.57-1.38c-9.04-3.81-18.44-6.88-27.98-9.22V191.84z"/>
<path fill="#938C77" d="M647.25,200.57v2.12c4.17-0.07,8.35-0.2,12.53-0.12c4.2,0.07,8.32,0.63,12.42,1.51c0.21,0.04,0.42,0.1,0.62,0.15c0.21-0.37,0.41-0.75,0.61-1.12c-4.43-1.24-8.82-2.06-13.65-2.32C655.61,200.55,651.43,200.58,647.25,200.57z"/>
<path fill="#938C77" d="M658.72,217.02c0.11-0.05,0.22-0.09,0.32-0.14c0.17,0.22,0.34,0.45,0.51,0.68c3.75-4.13,8.34-7.72,13.38-9.84c-0.32-0.43-0.64-0.85-0.96-1.26C666.85,208.84,662.29,212.55,658.72,217.02z"/>
<path fill="#938C77" d="M672.28,215.57c-2.68,2.72-5.72,5.68-8.47,8.9c0.22,0.44,0.44,0.89,0.65,1.35c2.38-3.55,5.18-6.89,8.05-10.02C672.66,215.64,672.43,215.42,672.28,215.57z"/>
<path fill="#938C77" d="M665.56,228.39c0.16,0.41,0.32,0.83,0.47,1.26c2.9-4.75,7.77-8.84,13.21-11.46c-0.24-0.51-0.49-1.01-0.74-1.5c-0.18,0.11-0.37,0.22-0.54,0.32C673.36,219.78,668.52,223.66,665.56,228.39z"/>
<path fill="#938C77" d="M666.98,232.69c0.11,0.42,0.22,0.84,0.32,1.27c4.19-4.05,9.14-6.38,15.08-7.79c0,0,0.01,0,0.01,0c-0.24-0.78-0.5-1.54-0.77-2.28C676.07,225.37,670.72,228.33,666.98,232.69z"/>
<path fill="#938C77" d="M668.34,240.33c-0.78,1.2-1.23,2.63-1.23,4.17c0,0.08,0.01,0.15,0.01,0.23c1.73-1.4,3.62-2.59,5.5-3.76c3.82-2.36,7.89-4.24,11.76-6.49c-0.07-0.42-0.15-0.82-0.22-1.23c-4.98,1.7-10.86,3.74-15.86,6.67C668.31,240.05,668.33,240.19,668.34,240.33z"/>
<path fill="#938C77" d="M674.44,252.18c0.12,0.01,0.25,0.02,0.37,0.02h2.42c0.21-0.79,0.46-1.6,0.76-2.44c1.76-4.94,4.77-9.12,8.21-12.96h-1.49c-0.01-0.09-0.03-0.18-0.04-0.27C680.33,239.79,676.31,245.97,674.44,252.18z"/>
<path fill="#938C77" d="M688.87,246.05c0.7-3.14,2.17-6.12,4.11-8.69c-0.47-0.19-0.97-0.34-1.48-0.43c-1.74,3.06-2.78,6.6-2.91,9.08C688.58,246.18,688.83,246.21,688.87,246.05z"/>
<path fill="#938C77" d="M682.11,175.12c0.62-1.94,1.49-3.79,2.49-5.57c-0.88-0.11-1.74-0.26-2.58-0.45c-1.41,3.21-2.37,6.79-2.78,8.6c-0.62,2.74-0.59,5.53,0.33,7.89c0.64,0.13,1.3,0.23,1.96,0.33C680.12,182.74,681,178.61,682.11,175.12z"/>
<path fill="#938C77" d="M688.24,182.73c0.08,0.19,0.37,0.12,0.32-0.09c-1.3-5.46,0.09-9.47,2.54-13.26c-0.71,0.13-1.44,0.23-2.17,0.28C686.95,173.73,686.4,178.38,688.24,182.73z"/>
<path fill="#938C77" d="M695.26,168.13c-0.47,0.19-0.94,0.37-1.41,0.53c-2.13,4.76-1.49,10.72-0.34,15.68c0.03,0.12,0.16,0.67,0.36,1.46c0.72-0.13,1.43-0.27,2.14-0.44c-0.33-1.14-0.64-2.28-0.94-3.42C693.85,177.36,693.75,172.55,695.26,168.13z"/>
<path fill="#938C77" d="M699.26,169.72c0.73,4.61,2.56,8.7,5.35,12.4c0.48-0.25,0.95-0.51,1.43-0.78c-3.04-3.27-5.07-7.53-6.51-11.69C699.47,169.47,699.24,169.54,699.26,169.72z"/>
<path fill="#938C77" d="M647.25,126.79v0.67c4.31,0.33,8.58,0.84,12.83,1.51c-0.7-0.46-1.32-0.98-1.88-1.55C654.57,127.04,650.91,126.82,647.25,126.79z"/>
<path fill="#938C77" d="M678.75,131.24c-1.29-0.34-2.59-0.66-3.9-0.96c-0.89,0.46-1.8,0.8-2.74,1.03c3.22,0.75,6.43,1.59,9.63,2.53c4.89,1.43,9.76,3.06,14.53,4.86c0.28-0.58,0.56-1.16,0.82-1.75c-0.49-0.24-0.9-0.42-1.14-0.51C690.29,134.49,684.55,132.76,678.75,131.24z"/>
<path fill="#693D56" d="M641.25,117.34c0.03-0.91,0-1.81-0.08-2.67c-0.17-1.91-0.58-3.65-1.12-4.96c-2.11-5.1-12,2.49-18.78,3.85c-2.46,0.49-4.19,1.48-5.34,2.73c-0.85,0.92-1.38,1.99-1.63,3.11c-0.55,2.51,0.3,5.29,2.07,7.32c1.32,1.52,2.73,2.64,4.2,3.44c2.58,1.39,5.36,1.75,8.26,1.29c1.57-0.25,3.18-0.74,4.81-1.43C639.12,127.71,641.07,122.31,641.25,117.34z"/>
<path fill="#938C77" d="M617.92,185.45c0-0.09,0-0.18,0-0.27c-0.37,0.09-0.75,0.17-1.13,0.25C617.18,185.43,617.56,185.44,617.92,185.45z"/>
<path fill="#E2CF9A" d="M607.04,169.68c-0.04,0-0.08,0-0.12,0c-1.02-0.07-2.03-0.22-3.02-0.44c-0.23,3.65-1.18,7.33-2.43,10.46c-0.03,0.08-0.16,0.05-0.13-0.04c0.79-3.33,1.51-7.08,1.42-10.71c-1.53-0.43-3.02-1.04-4.48-1.84c-0.16,4.93-2.08,10.41-3.76,14.43c-0.16,0.37-0.5,1.02-0.97,1.77c3.12,1.35,6.36,2.25,9.71,2.71c1.21-2.23,2.24-4.55,2.87-7.02C606.94,175.82,607.1,172.79,607.04,169.68z"/>
<path fill="#E2CF9A" d="M616.25,175.7c-0.74-2.24-1.58-4.47-2.63-6.59c-1.7,0.38-3.5,0.62-5.34,0.61c0.81,5.66-0.33,11.25-2.39,16.58c0.82,0.05,1.63,0.08,2.44,0.08c0.89,0,1.77-0.04,2.63-0.09c1.66-0.7,3.91-0.86,5.83-0.85c0.38-0.08,0.76-0.16,1.13-0.25C618.06,181.94,617.14,178.38,616.25,175.7z"/>
<path fill="#E2CF9A" d="M640.14,202.69c-5.77-0.15-12.12-0.67-18.26-0.23c0.63,1.25,1.32,2.47,2.09,3.61c-0.75,0.96-1.52,1.99-2.28,3.08c5.27,1.86,9.61,5.96,12.79,10.72c0.71-1.08,1.42-2.08,2.12-2.99c3.3,1.48,6.89,2.33,10.66,2.41v-16.61C644.88,202.73,642.51,202.75,640.14,202.69z"/>
<path fill="#E2CF9A" d="M597.13,166.44c-2.36-1.46-4.64-3.42-6.87-5.89c1.42-2.57,3.27-3.82,3.42-3.92c1.54-0.98,2.01-3.02,1.04-4.57c-0.97-1.56-3.03-2.04-4.59-1.06c-0.18,0.11-3.08,1.97-5.38,5.8c-0.92-0.2-1.87-0.24-2.81-0.12l-4.35-6.53c-1.02-1.53-3.09-1.95-4.62-0.92c-1.53,1.02-1.94,3.09-0.92,4.62l3.37,5.05l-5.46-2.33c-1.69-0.72-3.65,0.06-4.37,1.75c-0.72,1.69,0.06,3.65,1.75,4.37l7.4,3.16c0.01,0.11,0.03,0.21,0.05,0.32l-7.16,1.44c-1.8,0.36-2.97,2.12-2.61,3.92c0.32,1.58,1.71,2.67,3.26,2.67c0.22,0,0.44-0.02,0.66-0.07l8.36-1.68l-6.68,4.56c-1.52,1.04-1.91,3.11-0.87,4.63c0.65,0.94,1.69,1.45,2.75,1.45c0.65,0,1.3-0.19,1.88-0.58l8.58-5.87c2.6,2.21,5.32,4.05,8.14,5.52c1.16-1.82,2.06-3.81,2.86-5.81C595.2,173.24,596.48,169.84,597.13,166.44z"/>
<path fill="#E2CF9A" d="M618.25,221.95c-1.21,0.02-2.43,0.18-3.65,0.4c-1.17,2.98-2.16,6.21-2.88,9.67c5.58,0.52,11.02,2.87,15.86,5.96c0.35-2.49,0.9-4.83,1.6-7.02c-3.21-2.5-6.41-4.43-11.43-3.57c-0.06,0.01-0.08-0.08-0.03-0.09c4.68-1.21,8.33,0.34,11.76,2.73c0.3-0.88,0.63-1.73,0.97-2.56C627.35,223.98,623.42,221.88,618.25,221.95z"/>
<path fill="#E2CF9A" d="M600.7,96.16c15.21-4.93,30.75-8.87,46.55-11.33V70C627.02,70.2,609.5,80.75,600.7,96.16z"/>
<path fill="#E2CF9A" d="M620.85,210.38c-1.68,2.53-3.34,5.39-4.81,8.57c2.16,0.16,4.22,0.53,5.88,1.04c3.75,1.15,6.94,3.19,9.1,6.18c0.7-1.55,1.46-3,2.26-4.35C630.12,216.77,626.28,212.82,620.85,210.38z"/>
<path fill="#E2CF9A" d="M643.06,126.84c1.4-0.05,2.79-0.06,4.19-0.05v-9.86c-2,0.14-4,0.28-6.01,0.41c-0.18,4.96-2.13,10.36-7.6,12.68c-1.63,0.69-3.24,1.18-4.81,1.43c6.2,1.1,12.35,2.46,18.42,3.99v-7.98c-1.39-0.11-2.79-0.2-4.19-0.27C642.84,127.18,642.84,126.85,643.06,126.84z"/>
<path fill="#E2CF9A" d="M624.74,152.34c6.93,3.15,14.76,4.63,22.52,5.27v-5.21c-15.96-3.41-31.86-7.08-47.26-12.47c5.47,10.3,14.78,18.58,26.24,23.25c-0.55,0.4-1.25,0.88-2.06,1.4c6.31,0.25,12.15,2.49,18.11,4.81c1.65,0.64,3.31,1.24,4.98,1.83v-12.77c-7.79-0.96-15.43-2.58-22.53-6.1C624.71,152.35,624.72,152.33,624.74,152.34z"/>
<path fill="#E2CF9A" d="M611.04,236.06c-0.03,0.25-0.08,0.49-0.11,0.74h-2.85c2.89,2.45,5.38,5.6,7.37,8.16c0.06,0.08-0.04,0.19-0.12,0.12c-2.49-2.52-5.06-5.17-8.07-7.08c-0.74-0.47-1.46-0.85-2.16-1.18c-1.15,0.07-2.23,0.38-3.19,0.89c5.93,0.82,10.32,8.62,10.82,14.49h8.1c0.63,0,1.25-0.08,1.84-0.23c-0.7-2.09-1.1-4.38-2.41-6.26C617.82,242.22,614.73,238.54,611.04,236.06z"/>
<path fill="#E2CF9A" d="M623.43,165.04c-2.17,1.31-5.05,2.76-8.34,3.69c1.31,3.18,2.36,6.52,3.01,9.88c0.33,1.72,0.77,4.35,0.7,6.87c0.25,0.01,0.5,0.02,0.71,0.03c5.63,0.24,11.23,1.03,16.77,2.05c3.67,0.67,7.34,1.47,10.98,2.36v-9.17c-7.04-3.28-14-6.72-21.21-9.65c-0.1-0.04-0.06-0.19,0.04-0.16c6.49,2.22,12.73,4.92,18.97,7.75c0.73,0.33,1.46,0.65,2.2,0.96v-6.29c-0.76-0.3-1.52-0.6-2.29-0.91C637.9,169.62,630.98,166.22,623.43,165.04z"/>
<path fill="#E2CF9A" d="M611.42,233.62c-0.07,0.4-0.14,0.8-0.2,1.21c4.03,1.84,7.37,5.71,9.97,8.95c1.64,2.04,3.1,4.57,3.82,7.19c2.12-1.37,3.53-3.75,3.53-6.46c0-1.23-0.3-2.38-0.82-3.42c-1.67-1.28-3.3-2.62-5.09-3.62C618.99,235.42,615.27,234.42,611.42,233.62z"/>
<path fill="#E2CF9A" d="M599.25,240.1c-0.87,1.25-1.39,2.76-1.39,4.4c0,4.25,3.45,7.7,7.7,7.7h7.08c-0.27-3.36-1.68-6.72-3.94-9.2C605.95,239.98,602.94,238.94,599.25,240.1z"/>
<path fill="#E2CF9A" d="M620.57,130.16c-1.47-0.8-2.88-1.92-4.2-3.44c-1.77-2.03-2.62-4.81-2.07-7.32c-6.52,0.52-13.05,1.01-19.58,1.37c0.12,2.67,0.48,5.28,1.06,7.82C604.06,128.45,612.35,129.05,620.57,130.16z"/>
<path fill="#E2CF9A" d="M647.25,86.43c-0.03,0-0.06,0.01-0.09,0.01c-15.86,1.97-31.47,5.57-46.75,10.24c-2.18,3.94-3.8,8.18-4.75,12.65c16.84-4.48,34.17-7.08,51.59-7.19V86.43z"/>
<path fill="#E2CF9A" d="M647.25,149.91v-11.87c-16.77-4.75-33.89-7.25-51.25-8.45c0.71,2.83,1.68,5.56,2.9,8.17c13.13,2.87,25.94,7.71,39.12,10.36C641.1,148.72,644.18,149.32,647.25,149.91z"/>
<path fill="#E2CF9A" d="M621.79,188.17c-1.17-0.04-2.28,0.01-3.35,0.11c-0.07,0.27-0.14,0.53-0.23,0.78c0.26,3.82,1.12,7.46,2.47,10.8c6.14-0.34,12.49,0.28,18.12,0.55c2.81,0.13,5.63,0.16,8.45,0.17v-8.73c-2.79-0.67-5.62-1.24-8.47-1.72C633.18,189.18,627.49,188.35,621.79,188.17z"/>
<path fill="#E2CF9A" d="M621.27,113.57c6.78-1.36,16.67-8.95,18.78-3.85c0.54,1.31,0.95,3.04,1.12,4.96c2.03-0.12,4.06-0.24,6.08-0.37v-10.49c-17.31-0.24-34.8,1.81-51.64,5.78c-0.52,2.52-0.82,5.11-0.9,7.76c7.08-0.19,14.15-0.59,21.22-1.05C617.08,115.05,618.81,114.06,621.27,113.57z"/>
<path fill="#756D59" d="M647.25,86.43v-1.6c-15.8,2.46-31.34,6.4-46.55,11.33c-0.1,0.17-0.2,0.35-0.29,0.52c15.28-4.67,30.89-8.27,46.75-10.24C647.19,86.44,647.22,86.44,647.25,86.43z"/>
<path fill="#756D59" d="M647.25,103.81v-1.67c-17.43,0.11-34.75,2.71-51.59,7.19c-0.02,0.09-0.03,0.18-0.05,0.26C612.45,105.62,629.94,103.57,647.25,103.81z"/>
<path fill="#756D59" d="M641.25,117.34c2.01-0.13,4.01-0.27,6.01-0.41v-2.62c-2.02,0.13-4.05,0.25-6.08,0.37C641.25,115.54,641.28,116.43,641.25,117.34z"/>
<path fill="#756D59" d="M615.93,116.3c-7.07,0.46-14.14,0.87-21.22,1.05c-0.01,0.45-0.04,0.89-0.04,1.34c0,0.7,0.02,1.4,0.05,2.09c6.53-0.36,13.05-0.85,19.58-1.37C614.55,118.29,615.08,117.22,615.93,116.3z"/>
<path fill="#756D59" d="M647.25,135.44c-6.07-1.53-12.22-2.89-18.42-3.99c-2.9,0.46-5.68,0.1-8.26-1.29c-8.23-1.12-16.52-1.71-24.79-1.57c0.07,0.33,0.14,0.66,0.23,0.99c17.35,1.2,34.47,3.7,51.25,8.45V135.44z"/>
<path fill="#756D59" d="M647.25,149.91c-3.08-0.59-6.16-1.18-9.23-1.8c-13.19-2.64-25.99-7.48-39.12-10.36c0.34,0.74,0.71,1.46,1.09,2.18c15.4,5.39,31.3,9.06,47.26,12.47V149.91z"/>
<path fill="#756D59" d="M624.74,152.34c-0.01-0.01-0.03,0.01-0.01,0.02c7.1,3.52,14.74,5.14,22.53,6.1v-0.85C639.5,156.97,631.67,155.49,624.74,152.34z"/>
<path fill="#756D59" d="M624.17,164.59c-0.23,0.15-0.48,0.3-0.74,0.46c7.55,1.17,14.47,4.57,21.54,7.41c0.77,0.31,1.53,0.61,2.29,0.91v-2.13c-1.67-0.59-3.33-1.19-4.98-1.83C636.32,167.08,630.48,164.84,624.17,164.59z"/>
<path fill="#756D59" d="M626.09,170.94c-0.1-0.04-0.14,0.12-0.04,0.16c7.21,2.93,14.17,6.37,21.21,9.65v-1.1c-0.74-0.31-1.47-0.63-2.2-0.96C638.82,175.86,632.57,173.16,626.09,170.94z"/>
<path fill="#756D59" d="M619.51,185.51c-0.21-0.01-0.45-0.02-0.71-0.03c0.07-2.52-0.37-5.15-0.7-6.87c-0.65-3.36-1.7-6.69-3.01-9.88c-0.48,0.14-0.97,0.26-1.47,0.38c1.05,2.12,1.88,4.35,2.63,6.59c0.89,2.67,1.81,6.23,1.67,9.48c0.08-0.02,0.16-0.03,0.24-0.05c-0.02,0.47-0.03,0.95-0.03,1.43c0,0.84,0.04,1.67,0.09,2.5c0.09-0.25,0.16-0.51,0.23-0.78c1.07-0.1,2.18-0.15,3.35-0.11c5.69,0.18,11.38,1.02,16.99,1.95c2.85,0.47,5.67,1.04,8.47,1.72v-1.92c-3.64-0.89-7.3-1.69-10.98-2.36C630.74,186.54,625.14,185.75,619.51,185.51z"/>
<path fill="#938C77" d="M616.79,185.43c-1.92,0-4.17,0.15-5.83,0.85C612.98,186.14,614.92,185.84,616.79,185.43z"/>
<path fill="#756D59" d="M620.69,199.86c0.36,0.89,0.76,1.76,1.19,2.6c6.14-0.44,12.49,0.08,18.26,0.23c2.37,0.06,4.75,0.04,7.12,0v-2.12c-2.82-0.01-5.63-0.03-8.45-0.17C633.18,200.13,626.83,199.51,620.69,199.86z"/>
<path fill="#756D59" d="M633.28,221.82c0.4-0.68,0.8-1.33,1.21-1.95c-3.18-4.77-7.52-8.86-12.79-10.72c-0.28,0.4-0.56,0.81-0.84,1.23C626.28,212.82,630.12,216.77,633.28,221.82z"/>
<path fill="#756D59" d="M621.92,219.99c-1.66-0.51-3.72-0.88-5.88-1.04c-0.51,1.09-0.99,2.23-1.45,3.41c1.22-0.22,2.44-0.38,3.65-0.4c5.18-0.07,9.11,2.03,12.21,5.53c0.18-0.45,0.37-0.88,0.57-1.31C628.86,223.18,625.68,221.14,621.92,219.99z"/>
<path fill="#756D59" d="M617.72,227.31c-0.06,0.01-0.03,0.1,0.03,0.09c5.02-0.86,8.22,1.08,11.43,3.57c0.1-0.31,0.2-0.62,0.31-0.93C626.05,227.65,622.39,226.1,617.72,227.31z"/>
<path fill="#756D59" d="M611.42,233.62c3.85,0.8,7.57,1.8,11.22,3.84c1.78,1,3.42,2.34,5.09,3.62c-0.13-0.26-0.26-0.51-0.42-0.75c0.07-0.8,0.16-1.58,0.27-2.34c-4.84-3.1-10.28-5.44-15.86-5.96C611.61,232.55,611.51,233.08,611.42,233.62z"/>
<path fill="#756D59" d="M611.22,234.82c-0.06,0.41-0.12,0.82-0.18,1.23c3.68,2.48,6.77,6.16,9.22,9.66c1.31,1.88,1.71,4.17,2.41,6.26c0.84-0.21,1.63-0.55,2.34-1.01c-0.72-2.62-2.18-5.15-3.82-7.19C618.59,240.53,615.24,236.67,611.22,234.82z"/>
<path fill="#756D59" d="M601.92,237.71c-1.07,0.57-1.98,1.39-2.67,2.38c3.68-1.16,6.69-0.12,9.46,2.91c2.26,2.47,3.67,5.83,3.94,9.2h0.09C612.25,246.34,607.86,238.54,601.92,237.71z"/>
<path fill="#756D59" d="M615.34,245.08c0.08,0.08,0.18-0.04,0.12-0.12c-1.99-2.56-4.47-5.72-7.37-8.16h-2.52c-0.16,0-0.31,0.01-0.46,0.02c0.71,0.33,1.42,0.71,2.16,1.18C610.28,239.9,612.85,242.56,615.34,245.08z"/>
<path fill="#756D59" d="M608.28,169.72c-0.41,0-0.82-0.01-1.24-0.04c0.06,3.11-0.1,6.14-0.92,9.33c-0.63,2.46-1.66,4.78-2.87,7.02c0.84,0.12,1.68,0.21,2.54,0.27c0.04,0,0.07,0,0.11,0C607.95,180.96,609.09,175.38,608.28,169.72z"/>
<path fill="#756D59" d="M601.47,179.7c1.24-3.14,2.2-6.81,2.43-10.46c-0.38-0.09-0.76-0.18-1.14-0.29c0.09,3.63-0.63,7.39-1.42,10.71C601.31,179.76,601.43,179.79,601.47,179.7z"/>
<path fill="#756D59" d="M598.28,167.11c-0.39-0.21-0.77-0.44-1.15-0.67c-0.64,3.41-1.93,6.8-3.16,9.91c-0.8,2.01-1.7,3.99-2.86,5.81c0.8,0.42,1.61,0.8,2.43,1.15c0.47-0.75,0.82-1.4,0.97-1.77C596.2,177.52,598.11,172.04,598.28,167.11z"/>
<path fill="#756D59" d="M643.06,126.84c-0.23,0.01-0.23,0.34,0,0.35c1.4,0.07,2.8,0.16,4.19,0.27v-0.67C645.86,126.78,644.46,126.79,643.06,126.84z"/>
</symbol>

<symbol id="reaper" viewBox="27 27 256 225">
<path fill="#F6F6F6" d="M62.76,47.31c3.59-3.94,10.29-5.97,17.46-4.74c7.14,1.22,12.77,5.32,14.87,10.21c4.45-2.44,10.96-2.56,17.18,0.17c5.27,2.31,9.17,6.15,11,10.26l5.66-15.23c0,0-50.33-30.23-86.99-8.64c1.29-0.21,2.62-0.33,3.99-0.33C53.57,39.01,60.1,42.45,62.76,47.31z"/>
<path fill="#C6C6C6" d="M28.65,50.36c0,0,47.37-9.11,91.96,19.97l2.65-7.12c-1.82-4.11-5.72-7.96-11-10.26c-6.22-2.73-12.73-2.61-17.18-0.17c-2.1-4.88-7.73-8.98-14.87-10.21c-7.17-1.22-13.87,0.8-17.46,4.74c-2.66-4.86-9.18-8.3-16.83-8.3c-1.37,0-2.7,0.12-3.99,0.33C37.24,42.11,32.77,45.72,28.65,50.36z"/>
<path fill="#936037" d="M54.64,251.95c-0.48,0-0.97-0.09-1.45-0.26c-2.16-0.8-3.25-3.2-2.45-5.35l74.29-199.81c0.8-2.16,3.2-3.26,5.35-2.45c2.16,0.8,3.25,3.2,2.45,5.35L58.54,249.23C57.92,250.91,56.33,251.95,54.64,251.95z"/>
<path fill="#1D3136" d="M152.19,170.02c-6.44,0-11.66-5.22-11.66-11.66v-2.53c-13.35-1.91-24.29-7.79-26.54-24.68c-0.55-4.14-0.59-9.02-0.01-14.8c0.11-1.06,0.26-2.11,0.44-3.15c3.37-19.72,19.15-34.61,40.77-34.61c0.1,0,0.2,0,0.3,0V67.28c-0.02,0-0.04,0.01-0.04,0.01c-27.89,0-48.24,19.2-52.58,44.64c-0.23,1.34-0.43,2.69-0.57,4.06c-0.75,7.45-0.71,13.74,0.01,19.09c2.22,16.66,11,25.01,22.71,29.12c-5.54,4.51-9.84,10.18-12.16,16.57c-1.4,0.18-2.83,0.24-4.3,0.14c-6.38-0.44-12.12-3.76-17.55-10.15c-2.97-3.5-8.23-3.94-11.74-0.96c-3.51,2.97-3.94,8.23-0.96,11.74c8.37,9.87,18.17,15.25,29.12,15.99c0.86,0.06,1.7,0.09,2.54,0.09c0.55,0,1.09-0.01,1.62-0.04c2.97,15.38,18.09,54.15,18.09,54.15l25.8,0.24v-81.94H152.19z"/>
<path fill="#C6C6C6" d="M114.42,113.21c-0.18,1.04-0.33,2.08-0.44,3.15c-0.58,5.78-0.55,10.66,0.01,14.8c2.25,16.89,13.2,22.77,26.54,24.68v2.53c0,6.44,5.22,11.66,11.66,11.66h3.31V78.61c-0.1,0-0.2,0-0.3,0C133.57,78.6,117.79,93.49,114.42,113.21z"/>
<path fill="#374449" d="M199.63,196.32c1.98-12.52-3.79-23.93-13.3-31.84c12.15-4.01,21.23-12.46,22.87-30.09c0.48-5.2,0.34-11.27-0.58-18.41c11.54-3.78,10.72,9.67,19.46,9.16c8.74-0.5,2.5-16.57,2.5-16.57c-19.69-49.65-73.52-41.54-75.07-41.3v11.33c21.31,0.11,35.95,11.51,40.24,33.65c0.26,1.33,0.48,2.69,0.67,4.1c0.72,5.54,0.82,10.24,0.45,14.27c-1.65,17.77-13.05,23.51-26.76,25.3v2.43c0,6.44-5.22,11.66-11.66,11.66h-2.94v81.94l26.02,0.24C181.52,252.2,197.34,210.82,199.63,196.32z"/>
<path fill="#F7EADF" d="M158.43,170.02c6.44,0,11.66-5.22,11.66-11.66v-2.43c13.72-1.79,25.11-7.53,26.76-25.3c0.37-4.03,0.27-8.73-0.45-14.27c-0.18-1.41-0.41-2.77-0.67-4.1c-4.29-22.14-18.93-33.54-40.24-33.65v91.41H158.43z"/>
<path fill="#C6C6C6" d="M70.19,173.32c-2.25,6.78,0.48,13.78,6.08,15.64c5.6,1.86,11.97-2.14,14.21-8.92c2.25-6.79-0.48-13.79-6.08-15.64C78.79,162.54,72.43,166.54,70.19,173.32z"/>
<path fill="#1D3136" d="M127.32,132.4c-4.6,0-8.33-3.73-8.33-8.33c0-4.6,3.73-8.33,8.33-8.33c0.96,0,9.4-0.23,10.48-8.28c0.61-4.56,4.8-7.76,9.36-7.14c4.56,0.61,7.76,4.8,7.14,9.36C153.25,117.54,146.25,132.4,127.32,132.4z"/>
<path fill="#1D3136" d="M184.36,132.4c-18.93,0-25.93-14.86-26.99-22.72c-0.61-4.56,2.59-8.75,7.14-9.36c4.54-0.61,8.69,2.54,9.35,7.05c0.42,2.54,2.29,8.38,10.5,8.38c4.6,0,8.33,3.73,8.33,8.33C192.68,128.68,188.96,132.4,184.36,132.4z"/>
</symbol>
</defs>

<use xlink:href="#reaper" width="256" height="225" />
<use xlink:href="#jacko" width="256" height="225" x="256"/>
<use xlink:href="#mummy" width="256" height="225" x="512"/>

<use xlink:href="#werewolf" width="256" height="225" y="225"/>
<use xlink:href="#ghost" width="256" height="225" x="256" y="225"/>
<use xlink:href="#vampire" width="256" height="225" x="512" y="225"/>

<use xlink:href="#skeleton" width="256" height="225" y="550"/>
<use xlink:href="#zombie" width="256" height="225" x="256" y="550"/>
<use xlink:href="#witch" width="256" height="225" x="512" y="550"/>
</svg>